<?xml version="1.0" standalone="no"?>
<!DOCTYPE svg PUBLIC "-//W3C//DTD SVG 1.1//EN" "http://www.w3.org/Graphics/SVG/1.1/DTD/svg11.dtd" >
<svg>
<metadata>
Created by FontForge 20090914 at Mon Mar 23 18:57:57 2015
 By www-data
</metadata>
<defs>
<font id="Material-Design-Icons" horiz-adv-x="1024" >
  <font-face 
    font-family="Material-Design-Icons"
    font-weight="400"
    font-stretch="normal"
    units-per-em="1024"
    panose-1="0 0 0 0 0 0 0 0 0 0"
    ascent="960"
    descent="-64"
    bbox="-21 -85 1045 981"
    underline-thickness="0"
    underline-position="0"
    unicode-range="U+0001-U+FFFD"
  />
<missing-glyph horiz-adv-x="0" 
 />
    <glyph glyph-name=".notdef" unicode="&#xfffd;" horiz-adv-x="0" 
 />
    <glyph glyph-name="glyph1" horiz-adv-x="0" 
d="M0 0v0v0z" />
    <glyph glyph-name="glyph1" horiz-adv-x="0" 
d="M0 0v0v0z" />
    <glyph glyph-name="uni0001" horiz-adv-x="0" 
d="M0 0v0v0z" />
    <glyph glyph-name="space" unicode=" " horiz-adv-x="512" 
d="M0 0v0v0z" />
    <glyph glyph-name="uniE600" unicode="&#xe600;" 
d="M321 43c-35.333 16.667 -67.667 37.333 -97 62s-55 52.667 -77 84s-40 65.166 -54 101.499s-23 74.5 -27 114.5h-64c5.33301 -65.333 22.333 -126.666 51 -183.999s66 -107 112 -149c45.333 -42 97.666 -75.167 156.999 -99.5s122.666 -36.5 189.999 -36.5
c4.66699 0 9.33398 0.166992 14.001 0.5s9.33398 0.5 14.001 0.5l-162 163l-57 -57v0zM358.999 321.999c-4 0 -7.99512 0.18457 -11.9951 0.517578s-7.66699 1.16602 -11 2.49902s-6.33301 2.83301 -9 4.5s-5.33398 3.5 -8.00098 5.5c-2 2.66699 -4 5.16699 -6 7.5
s-3.66699 5.16602 -5 8.49902s-2.33301 6.66602 -3 9.99902s-1 6.66602 -1 9.99902h-55c0 -4 0.166992 -7.83301 0.5 -11.5s0.833008 -7.16699 1.5 -10.5s1.66699 -6.5 3 -9.5s2.66602 -6.16699 3.99902 -9.5c1.33301 -2.66699 2.83301 -5.33398 4.5 -8.00098
s3.5 -5.33398 5.5 -8.00098l6.5 -6.5c2.33301 -2.33301 4.83301 -4.5 7.5 -6.5s5.33398 -3.83301 8.00098 -5.5s5.33398 -3.16699 8.00098 -4.5s5.66699 -2.66602 9 -3.99902s6.66602 -2.33301 9.99902 -3c3.33301 -1.33301 6.66602 -2.33301 9.99902 -3l10 -2
c3.33301 -0.666992 6.83301 -1.16699 10.5 -1.5s7.16699 -0.5 10.5 -0.5c4 0 7.83301 0.166992 11.5 0.5s7.5 0.833008 11.5 1.5l10.5 2c3.66699 0.666992 7.16699 1.66699 10.5 3c3.33301 0.666992 6.66602 1.66699 9.99902 3s6.33301 3 9 5c3.33301 1.33301 6.33301 3 9 5
l8 6l6.5 6.5c2.33301 2.33301 4.5 4.83301 6.5 7.5c2 2 3.83301 4.5 5.5 7.5s3.16699 5.83301 4.5 8.5c1.33301 3.33301 2.5 6.66602 3.5 9.99902s1.83301 6.66602 2.5 9.99902l2 10.5c0.666992 3.66699 1 7.5 1 11.5s-0.333008 8 -1 12l-2 12
c-1.33301 4 -2.83301 7.83301 -4.5 11.5s-3.5 7.16699 -5.5 10.5s-4.5 6.5 -7.5 9.5s-6.16699 5.83301 -9.5 8.5c-4 2.66699 -8.16699 5.16699 -12.5 7.5s-8.83301 4.16602 -13.5 5.49902c4 2 7.83301 4.16699 11.5 6.5s7.16699 5.16602 10.5 8.49902
c3.33301 2.66699 6.33301 5.5 9 8.5s5 5.83301 7 8.5c2 3.33301 3.83301 6.66602 5.5 9.99902s3.16699 6.66602 4.5 9.99902l2 10c0.666992 3.33301 1 6.66602 1 9.99902c0 4 -0.166992 7.83301 -0.5 11.5s-0.833008 7.16699 -1.5 10.5s-1.5 6.66602 -2.5 9.99902
s-2.16699 6.33301 -3.5 9c-1.33301 3.33301 -2.66602 6.33301 -3.99902 9s-3 5 -5 7c-2 2.66699 -4 5.16699 -6 7.5s-4 4.5 -6 6.5c-2.66699 2 -5.33398 3.83301 -8.00098 5.5s-5.33398 3.16699 -8.00098 4.5s-5.5 2.66602 -8.5 3.99902s-6.16699 2.33301 -9.5 3
c-3.33301 1.33301 -6.83301 2.33301 -10.5 3l-10.5 2c-4 0.666992 -7.83301 1.16699 -11.5 1.5s-7.5 0.5 -11.5 0.5s-7.83301 -0.166992 -11.5 -0.5s-7.16699 -0.833008 -10.5 -1.5c-4 -0.666992 -7.66699 -1.33398 -11 -2.00098s-6.66602 -1.66699 -9.99902 -3
s-6.5 -2.66602 -9.5 -3.99902s-5.83301 -2.66602 -8.5 -3.99902c-2.66699 -2 -5.33398 -3.83301 -8.00098 -5.5s-5 -3.5 -7 -5.5c-2.66699 -2 -5 -4.16699 -7 -6.5s-4 -4.5 -6 -6.5c-1.33301 -2.66699 -2.83301 -5.33398 -4.5 -8.00098s-3.16699 -5.33398 -4.5 -8.00098
s-2.5 -5.5 -3.5 -8.5s-1.83301 -5.83301 -2.5 -8.5c-0.666992 -3.33301 -1.16699 -6.5 -1.5 -9.5s-0.5 -6.16699 -0.5 -9.5h55c0 3.33301 0.333008 6.66602 1 9.99902s1.66699 6.33301 3 9s3 5.33398 5 8.00098s4 4.66699 6 6c2 2.66699 4.33301 4.66699 7 6
s5.66699 2.66602 9 3.99902l10 2c3.33301 0.666992 6.66602 1 9.99902 1c4.66699 0 8.83398 -0.166992 12.501 -0.5s7.16699 -1.16602 10.5 -2.49902c2.66699 -1.33301 5.33398 -2.83301 8.00098 -4.5s5 -3.5 7 -5.5s3.83301 -4.33301 5.5 -7s3.16699 -5.66699 4.5 -9
c0.666992 -2.66699 1.33398 -5.83398 2.00098 -9.50098s1 -7.5 1 -11.5s-0.333008 -7.66699 -1 -11s-1.66699 -6.66602 -3 -9.99902c-0.666992 -2.66699 -2 -5.33398 -4 -8.00098l-6 -8c-2.66699 -2 -5.33398 -3.83301 -8.00098 -5.5s-6 -3.16699 -10 -4.5
c-3.33301 -1.33301 -7 -2.33301 -11 -3s-8.33301 -1 -13 -1h-33v-44h33c4.66699 0 9 -0.166992 13 -0.5s8 -1.16602 12 -2.49902c4 -0.666992 7.5 -1.83398 10.5 -3.50098s5.83301 -3.83398 8.5 -6.50098c2.66699 -2 5 -4.5 7 -7.5s4 -6.16699 6 -9.5
c1.33301 -3.33301 2.33301 -7 3 -11s1 -8.33301 1 -13s-0.333008 -8.83398 -1 -12.501s-1.66699 -7.16699 -3 -10.5s-2.83301 -6.33301 -4.5 -9s-3.83398 -5.33398 -6.50098 -8.00098c-2.66699 -2 -5.33398 -3.83301 -8.00098 -5.5s-5.66699 -3.16699 -9 -4.5
s-7 -2.16602 -11 -2.49902s-8 -0.5 -12 -0.5v0zM724.004 575.017c-3.33301 3.33301 -6.83008 6.49707 -10.4971 9.49707s-7.5 5.83301 -11.5 8.5s-8.33301 5.16699 -13 7.5s-9.33398 4.5 -14.001 6.5s-9.5 3.66699 -14.5 5l-14.5 4l-16.5 2
c-5.66699 0.666992 -11.167 1 -16.5 1h-101v-342h98c6 0 11.833 0.333008 17.5 1l16.5 2l15.5 4c5 1.33301 9.83301 3 14.5 5c5.33301 2 10.166 4.16699 14.499 6.5s8.5 4.83301 12.5 7.5s8 5.5 12 8.5s7.66699 6.16699 11 9.5l9.5 11.5
c3 3.66699 5.83301 7.83398 8.5 12.501c2.66699 4 5.16699 8.33301 7.5 13s4.16602 9.33398 5.49902 14.001c2 5.33301 3.66699 10.666 5 15.999l4 16l2 17.5c0.666992 5.66699 1 11.5 1 17.5v17c0 6.66699 -0.333008 12.834 -1 18.501l-2 17.5l-4 16
c-1.33301 5.33301 -3 10.333 -5 15c-2 5.33301 -4 10.333 -6 15s-4.33301 9 -7 13c-2.66699 4.66699 -5.5 8.83398 -8.5 12.501l-9.5 11.5v0zM707.007 439.014c0 -4 -0.166992 -8.16602 -0.5 -12.499s-0.833008 -8.5 -1.5 -12.5c0 -4 -0.5 -7.83301 -1.5 -11.5
s-1.83301 -7.5 -2.5 -11.5c-1.33301 -3.33301 -2.5 -6.66602 -3.5 -9.99902s-2.5 -6.33301 -4.5 -9c-1.33301 -3.33301 -2.83301 -6.33301 -4.5 -9s-3.5 -5.33398 -5.5 -8.00098l-6.5 -6.5c-2.33301 -2.33301 -4.83301 -4.5 -7.5 -6.5s-5.33398 -3.66699 -8.00098 -5
s-5.66699 -2.66602 -9 -3.99902c-2.66699 -1.33301 -5.66699 -2.5 -9 -3.5s-6.66602 -1.83301 -9.99902 -2.5c-4 -0.666992 -7.83301 -1.16699 -11.5 -1.5s-7.5 -0.5 -11.5 -0.5h-39v246h42c7.33301 0 14.5 -0.666992 21.5 -2s13.167 -3 18.5 -5
c6 -2.66699 11.5 -5.83398 16.5 -9.50098s9.5 -7.83398 13.5 -12.501c4 -5.33301 7.5 -11 10.5 -17s5.5 -12.333 7.5 -19c2 -7.33301 3.5 -15 4.5 -23s1.5 -16.667 1.5 -26v-18v0zM512.007 960.015c-4.66699 0 -9.33496 -0.166992 -14.002 -0.5s-9.33398 -0.5 -14.001 -0.5
l162 -163l57 56c34.667 -16 66.834 -36.333 96.501 -61s55.5 -52.667 77.5 -84s40 -65.166 54 -101.499s23 -74.5 27 -114.5h64c-5.33301 65.333 -22.333 126.666 -51 183.999s-66 107 -112 149c-45.333 42 -97.666 75.167 -156.999 99.5s-122.666 36.5 -189.999 36.5v0z
" />
    <glyph glyph-name="uniE601" unicode="&#xe601;" 
d="M512 875c12 0 23.167 -2.33301 33.5 -7s19.166 -10.667 26.499 -18c8 -8 14.167 -17.167 18.5 -27.5s6.5 -21.5 6.5 -33.5c0 -11.333 -2.16699 -22.166 -6.5 -32.499s-10.5 -19.5 -18.5 -27.5c-7.33301 -8 -16.166 -14.167 -26.499 -18.5s-21.5 -6.5 -33.5 -6.5
s-23.167 2.16699 -33.5 6.5s-19.166 10.5 -26.499 18.5c-8 8 -14.167 17.167 -18.5 27.5s-6.5 21.166 -6.5 32.499c0 12 2.16699 23.167 6.5 33.5s10.5 19.5 18.5 27.5c7.33301 7.33301 16.166 13.333 26.499 18s21.5 7 33.5 7v0zM896 576h-256v-555h-85v256h-86v-256h-85
v555h-256v85h768v-85v0z" />
    <glyph glyph-name="uniE602" unicode="&#xe602;" 
d="M171 533v-298h128v298h-128v0zM427 533v-298h128v298h-128v0zM85 21h811v128h-811v-128v0zM683 533v-298h128v298h-128v0zM491 917l-406 -213v-85h811v85l-405 213v0z" />
    <glyph glyph-name="uniE603" unicode="&#xe603;" 
d="M896 192v-43.002c0 -11.333 -2.16699 -22.166 -6.5 -32.499s-10.5 -19.5 -18.5 -27.5s-17.167 -14.167 -27.5 -18.5s-21.166 -6.5 -32.499 -6.5h-598c-11.333 0 -22.166 2.16699 -32.499 6.5s-19.5 10.5 -27.5 18.5s-14.167 17.167 -18.5 27.5s-6.5 21.166 -6.5 32.499
v598c0 11.333 2.16699 22.166 6.5 32.499s10.5 19.5 18.5 27.5s17.167 14.167 27.5 18.5s21.166 6.5 32.499 6.5h598c11.333 0 22.166 -2.16699 32.499 -6.5s19.5 -10.5 27.5 -18.5s14.167 -17.167 18.5 -27.5s6.5 -21.166 6.5 -32.499v-43h-384
c-12 0 -23.167 -2.16699 -33.5 -6.5s-19.166 -10.5 -26.499 -18.5c-8 -8 -14.167 -17.167 -18.5 -27.5s-6.5 -21.166 -6.5 -32.499v-342c0 -11.333 2.16699 -22.166 6.5 -32.499s10.5 -19.5 18.5 -27.5c7.33301 -8 16.166 -14.167 26.499 -18.5s21.5 -6.5 33.5 -6.5h384v0z
M512 276.998h427v342h-427v-342v0zM683 383.998c-9.33301 0 -17.833 1.66699 -25.5 5s-14.5 8 -20.5 14c-5.33301 5.33301 -9.66602 12 -12.999 20s-5 16.333 -5 25s1.66699 17 5 25s7.66602 14.667 12.999 20c6 6 12.833 10.667 20.5 14s16.167 5 25.5 5
c8.66699 0 16.834 -1.66699 24.501 -5s14.5 -8 20.5 -14c6 -5.33301 10.667 -12 14 -20s5 -16.333 5 -25s-1.66699 -17 -5 -25s-8 -14.667 -14 -20c-6 -6 -12.833 -10.667 -20.5 -14s-15.834 -5 -24.501 -5v0z" />
    <glyph glyph-name="uniE604" unicode="&#xe604;" 
d="M128 747v-598c0 -11.333 2.16699 -22.166 6.5 -32.499s10.5 -19.5 18.5 -27.5s17.167 -14.167 27.5 -18.5s21.166 -6.5 32.499 -6.5h598c11.333 0 22.166 2.16699 32.499 6.5s19.5 10.5 27.5 18.5s14.167 17.167 18.5 27.5s6.5 21.166 6.5 32.499v598
c0 11.333 -2.16699 22.166 -6.5 32.499s-10.5 19.5 -18.5 27.5s-17.167 14.167 -27.5 18.5s-21.166 6.5 -32.499 6.5h-598c-11.333 0 -22.166 -2.16699 -32.499 -6.5s-19.5 -10.5 -27.5 -18.5s-14.167 -17.167 -18.5 -27.5s-6.5 -21.166 -6.5 -32.499v0zM640 576
c0 -18 -3.33301 -34.667 -10 -50s-16 -29 -28 -41c-11.333 -11.333 -24.833 -20.333 -40.5 -27s-32.167 -10 -49.5 -10s-33.833 3.33301 -49.5 10s-29.167 15.667 -40.5 27c-12 12 -21.333 25.667 -28 41s-10 32 -10 50c0 17.333 3.33301 33.833 10 49.5s16 29.167 28 40.5
c11.333 12 24.833 21.333 40.5 28s32.167 10 49.5 10s33.833 -3.33301 49.5 -10s29.167 -16 40.5 -28c12 -11.333 21.333 -24.833 28 -40.5s10 -32.167 10 -49.5v0zM256 235c0 21.333 9.33301 40.166 28 56.499s41.334 30.166 68.001 41.499s54.667 19.833 84 25.5
s54.666 8.5 75.999 8.5s46.666 -2.83301 75.999 -8.5s57.333 -14.167 84 -25.5s49.334 -25.166 68.001 -41.499s28 -35.166 28 -56.499v-43h-512v43v0z" />
    <glyph glyph-name="uniE605" unicode="&#xe605;" 
d="M704 448c14.667 0 28.5 2.83301 41.5 8.5s24.167 13.167 33.5 22.5c10 10 17.667 21.5 23 34.5s8 26.833 8 41.5s-2.66699 28.5 -8 41.5s-13 24.167 -23 33.5c-9.33301 10 -20.5 17.667 -33.5 23s-26.833 8 -41.5 8s-28.5 -2.66699 -41.5 -8s-24.167 -13 -33.5 -23
c-10 -9.33301 -17.833 -20.5 -23.5 -33.5s-8.5 -26.833 -8.5 -41.5s2.83301 -28.5 8.5 -41.5s13.5 -24.5 23.5 -34.5c9.33301 -9.33301 20.5 -16.833 33.5 -22.5s26.833 -8.5 41.5 -8.5v0zM384 491c17.333 0 33.833 3.33301 49.5 10s29.167 15.667 40.5 27
c12 12 21.333 25.667 28 41s10 32 10 50c0 17.333 -3.33301 33.833 -10 49.5s-16 29.167 -28 40.5c-11.333 12 -24.833 21.333 -40.5 28s-32.167 10 -49.5 10s-33.833 -3.33301 -49.5 -10s-29.167 -16 -40.5 -28c-12 -11.333 -21.333 -24.833 -28 -40.5
s-10 -32.167 -10 -49.5c0 -18 3.33301 -34.667 10 -50s16 -29 28 -41c11.333 -11.333 24.833 -20.333 40.5 -27s32.167 -10 49.5 -10v0zM704 363c-19.333 0 -42.5 -2.5 -69.5 -7.5s-52.833 -12.5 -77.5 -22.5c-24 -9.33301 -44.667 -21.333 -62 -36s-26 -32 -26 -52v-96h470
v96c0 20 -8.66699 37.333 -26 52s-38 26.667 -62 36c-24.667 10 -50.5 17.5 -77.5 22.5s-50.167 7.5 -69.5 7.5v0zM384 405c-24.667 0 -54.165 -2.99707 -88.498 -8.99707s-67.166 -15.333 -98.499 -28c-30.667 -12.667 -57 -28.334 -79 -47.001s-33 -40.334 -33 -65.001
v-107h299v96c0 9.33301 1.16699 20 3.5 32s7.16602 24.667 14.499 38s17.666 26.666 30.999 39.999s30.666 26 51.999 38c-9.33301 2 -18.5 3.83301 -27.5 5.5s-17.833 2.83398 -26.5 3.50098c-8.66699 1.33301 -17 2.16602 -25 2.49902s-15.333 0.5 -22 0.5v0z" />
    <glyph glyph-name="uniE606" unicode="&#xe606;" 
d="M512 875c-58.667 0 -114 -11.167 -166 -33.5s-97.333 -52.833 -136 -91.5s-69.167 -84 -91.5 -136s-33.5 -107.333 -33.5 -166s11.167 -114 33.5 -166s52.833 -97.333 91.5 -136s84 -69.167 136 -91.5s107.333 -33.5 166 -33.5s114 11.167 166 33.5
s97.333 52.833 136 91.5s69.167 84 91.5 136s33.5 107.333 33.5 166s-11.167 114 -33.5 166s-52.833 97.333 -91.5 136s-84 69.167 -136 91.5s-107.333 33.5 -166 33.5v0zM512 747c17.333 0 33.833 -3.33301 49.5 -10s29.167 -16 40.5 -28
c12 -11.333 21.333 -24.833 28 -40.5s10 -32.167 10 -49.5c0 -18 -3.33301 -34.833 -10 -50.5s-16 -29.167 -28 -40.5c-11.333 -11.333 -24.833 -20.333 -40.5 -27s-32.167 -10 -49.5 -10s-33.833 3.33301 -49.5 10s-29.167 15.667 -40.5 27
c-12 11.333 -21.333 24.833 -28 40.5s-10 32.5 -10 50.5c0 17.333 3.33301 33.833 10 49.5s16 29.167 28 40.5c11.333 12 24.833 21.333 40.5 28s32.167 10 49.5 10v0zM512 141c-26.667 0 -52.498 3.16699 -77.498 9.5s-48.167 15.5 -69.5 27.5
c-22 12 -42.167 26.5 -60.5 43.5s-34.5 35.833 -48.5 56.5c0 21.333 9.5 40.166 28.5 56.499s41.5 30.166 67.5 41.499c26.667 10.667 54.667 19 84 25s54.666 9 75.999 9s46.666 -3 75.999 -9s57 -14.333 83 -25c26.667 -11.333 49.5 -25.166 68.5 -41.499
s28.5 -35.166 28.5 -56.499c-14 -20.667 -30.167 -39.5 -48.5 -56.5s-38.5 -31.5 -60.5 -43.5c-21.333 -12 -44.5 -21.167 -69.5 -27.5s-50.833 -9.5 -77.5 -9.5v0z" />
    <glyph glyph-name="uniE607" unicode="&#xe607;" 
d="M469 576h86v128h128v85h-128v128h-86v-128h-128v-85h128v-128v0zM299 192c-12 0 -23.167 -2.16699 -33.5 -6.5s-19.166 -10.5 -26.499 -18.5c-8 -8 -14.167 -17.167 -18.5 -27.5s-6.5 -21.166 -6.5 -32.499c0 -12 2.16699 -23.167 6.5 -33.5s10.5 -19.5 18.5 -27.5
c7.33301 -7.33301 16.166 -13.333 26.499 -18s21.5 -7 33.5 -7c11.333 0 22.166 2.33301 32.499 7s19.5 10.667 27.5 18c8 8 14.167 17.167 18.5 27.5s6.5 21.5 6.5 33.5c0 11.333 -2.16699 22.166 -6.5 32.499s-10.5 19.5 -18.5 27.5s-17.167 14.167 -27.5 18.5
s-21.166 6.5 -32.499 6.5v0zM725 192c-11.333 0 -22.166 -2.16699 -32.499 -6.5s-19.5 -10.5 -27.5 -18.5c-7.33301 -8 -13.333 -17.167 -18 -27.5s-7 -21.166 -7 -32.499c0 -12 2.33301 -23.167 7 -33.5s10.667 -19.5 18 -27.5c8 -7.33301 17.167 -13.333 27.5 -18
s21.166 -7 32.499 -7c12 0 23.167 2.33301 33.5 7s19.5 10.667 27.5 18c7.33301 8 13.333 17.167 18 27.5s7 21.5 7 33.5c0 11.333 -2.33301 22.166 -7 32.499s-10.667 19.5 -18 27.5c-8 8 -17.167 14.167 -27.5 18.5s-21.5 6.5 -33.5 6.5v0zM306 331
c0 0.666992 0.168945 1.49902 0.501953 2.49902s0.5 1.83301 0.5 2.5l39 69h318c8 0 15.667 1.16699 23 3.5s14 5.16602 20 8.49902c6.66699 4 12.667 8.66699 18 14s9.66602 11.333 12.999 18l165 299l-75 41v0l-47 -85l-118 -213h-299l-5 11l-137 287l-40 86h-139v-86h85
l154 -323l-58 -105c-2 -2.66699 -3.66699 -5.66699 -5 -9s-2.33301 -6.66602 -3 -9.99902c-0.666992 -4 -1.33398 -7.66699 -2.00098 -11s-1 -7 -1 -11c0 -12 2.33301 -23.167 7 -33.5s10.667 -19.166 18 -26.499c8 -8 17.167 -14.167 27.5 -18.5s21.5 -6.5 33.5 -6.5h512
v85h-494c-3.33301 0 -6 1 -8 3s-3 4.66699 -3 8v0z" />
    <glyph glyph-name="uniE608" unicode="&#xe608;" 
d="M939 716l-196 164l-55 -65l196 -164l55 65v0zM336 815l-55 66l-196 -165l55 -65l196 164v0zM533 619h-64v-256l203 -122l32 53l-171 101v224v0zM512 789c-53.333 0 -103.333 -10 -150 -30s-87.334 -47.333 -122.001 -82s-62 -75.334 -82 -122.001s-30 -96.667 -30 -150
c0 -52.667 10 -102.334 30 -149.001s47.333 -87.334 82 -122.001s75.334 -62.167 122.001 -82.5s96.667 -30.5 150 -30.5c52.667 0 102.334 10.167 149.001 30.5s87.334 47.833 122.001 82.5c35.333 34.667 63 75.334 83 122.001s30 96.334 30 149.001
c0 53.333 -10 103.333 -30 150s-47.667 87.334 -83 122.001c-34.667 34.667 -75.334 62 -122.001 82s-96.334 30 -149.001 30v0zM512 107c-41.333 0 -80.166 7.83301 -116.499 23.5s-67.833 36.834 -94.5 63.501c-27.333 27.333 -48.833 59 -64.5 95s-23.5 74.667 -23.5 116
s7.83301 80.166 23.5 116.499s37.167 68.166 64.5 95.499c26.667 26.667 58.167 47.834 94.5 63.501s75.166 23.5 116.499 23.5s80.166 -7.83301 116.499 -23.5s67.833 -36.834 94.5 -63.501c27.333 -27.333 48.833 -59.166 64.5 -95.499s23.5 -75.166 23.5 -116.499
s-7.83301 -80 -23.5 -116s-37.167 -67.667 -64.5 -95c-26.667 -26.667 -58.167 -47.834 -94.5 -63.501s-75.166 -23.5 -116.499 -23.5v0z" />
    <glyph glyph-name="uniE609" unicode="&#xe609;" 
d="M336 815l-55 66l-196 -165l55 -65l196 164v0zM939 716l-196 164l-55 -65l196 -164l55 65v0zM512 789c-53.333 0 -103.333 -10 -150 -30s-87.334 -47.333 -122.001 -82s-62 -75.334 -82 -122.001s-30 -96.667 -30 -150c0 -52.667 10 -102.334 30 -149.001
s47.333 -87.334 82 -122.001s75.334 -62.167 122.001 -82.5s96.667 -30.5 150 -30.5c52.667 0 102.334 10.167 149.001 30.5s87.334 47.833 122.001 82.5c35.333 34.667 63 75.334 83 122.001s30 96.334 30 149.001c0 53.333 -10 103.333 -30 150
s-47.667 87.334 -83 122.001c-34.667 34.667 -75.334 62 -122.001 82s-96.334 30 -149.001 30v0zM512 107c-41.333 0 -80.166 7.83301 -116.499 23.5s-67.833 36.834 -94.5 63.501c-27.333 27.333 -48.833 59 -64.5 95s-23.5 74.667 -23.5 116s7.83301 80.166 23.5 116.499
s37.167 68.166 64.5 95.499c26.667 26.667 58.167 47.834 94.5 63.501s75.166 23.5 116.499 23.5s80.166 -7.83301 116.499 -23.5s67.833 -36.834 94.5 -63.501c27.333 -27.333 48.833 -59.166 64.5 -95.499s23.5 -75.166 23.5 -116.499s-7.83301 -80 -23.5 -116
s-37.167 -67.667 -64.5 -95c-26.667 -26.667 -58.167 -47.834 -94.5 -63.501s-75.166 -23.5 -116.499 -23.5v0zM555 576h-86v-128h-128v-85h128v-128h86v128h128v85h-128v128v0z" />
    <glyph glyph-name="uniE60A" unicode="&#xe60a;" 
d="M512 704c41.333 0 80.165 -7.83496 116.498 -23.502s67.833 -36.834 94.5 -63.501c27.333 -27.333 48.833 -59.166 64.5 -95.499s23.5 -75.166 23.5 -116.499c0 -8.66699 -0.5 -17.5 -1.5 -26.5s-2.16699 -17.5 -3.5 -25.5
c-1.33301 -8.66699 -3.16602 -17.167 -5.49902 -25.5s-5.16602 -16.5 -8.49902 -24.5l65 -65c6 12.667 11.5 25.667 16.5 39s9.16699 27 12.5 41s5.83301 28.333 7.5 43s2.5 29.334 2.5 44.001c0 53.333 -10 103.333 -30 150s-47.667 87.334 -83 122.001
c-34.667 34.667 -75.334 62 -122.001 82s-96.334 30 -149.001 30c-15.333 0 -30.166 -0.833008 -44.499 -2.5s-28.5 -4.16699 -42.5 -7.5s-27.667 -7.33301 -41 -12s-26.333 -10 -39 -16l65 -65c8 2.66699 16 5.16699 24 7.5s16.333 4.16602 25 5.49902
c8.66699 2 17.334 3.33301 26.001 4s17.667 1 27 1v0zM938.999 715.998l-196 164l-55 -65l196 -164l55 65v0zM124.999 861.998l-54.999 -53.998l57 -57l-47 -40l60 -60l48 40l34 -35c-14.667 -16.667 -27.834 -34.667 -39.501 -54s-21.5 -39.333 -29.5 -60
c-8 -21.333 -14.167 -43.5 -18.5 -66.5s-6.5 -46.5 -6.5 -70.5c0 -52.667 10 -102.334 30 -149.001s47.333 -87.334 82 -122.001s75.334 -62.167 122.001 -82.5s96.667 -30.5 150 -30.5c24 0 47.333 2.16699 70 6.5s44.667 10.5 66 18.5
c21.333 8.66699 41.666 18.667 60.999 30s37.333 24.333 54 39l94 -94l54 55l-786 786v0zM703 175c-13.333 -10.667 -27.335 -20.1699 -42.002 -28.5029s-30 -15.5 -46 -21.5s-32.667 -10.5 -50 -13.5s-35 -4.5 -53 -4.5c-41.333 0 -80.166 7.83301 -116.499 23.5
s-67.833 36.834 -94.5 63.501c-27.333 27.333 -48.833 59 -64.5 95s-23.5 74.667 -23.5 116c0 18.667 1.66699 36.5 5 53.5s8 33.5 14 49.5c5.33301 16.667 12.333 32.334 21 47.001s18.334 28.334 29.001 41.001l421 -421v0zM341.998 819.997l-61 61l-36 -31l61 -60l36 30
v0z" />
    <glyph glyph-name="uniE60B" unicode="&#xe60b;" 
d="M939 716l-196 164l-55 -65l196 -164l55 65v0zM336 815l-55 66l-196 -165l55 -65l196 164v0zM512 789c-53.333 0 -103.333 -10 -150 -30s-87.334 -47.333 -122.001 -82s-62 -75.334 -82 -122.001s-30 -96.667 -30 -150c0 -52.667 10 -102.334 30 -149.001
s47.333 -87.334 82 -122.001s75.334 -62.167 122.001 -82.5s96.667 -30.5 150 -30.5c52.667 0 102.334 10.167 149.001 30.5s87.334 47.833 122.001 82.5c35.333 34.667 63 75.334 83 122.001s30 96.334 30 149.001c0 53.333 -10 103.333 -30 150
s-47.667 87.334 -83 122.001c-34.667 34.667 -75.334 62 -122.001 82s-96.334 30 -149.001 30v0zM512 107c-41.333 0 -80.166 7.83301 -116.499 23.5s-67.833 36.834 -94.5 63.501c-27.333 27.333 -48.833 59 -64.5 95s-23.5 74.667 -23.5 116s7.83301 80.166 23.5 116.499
s37.167 68.166 64.5 95.499c26.667 26.667 58.167 47.834 94.5 63.501s75.166 23.5 116.499 23.5s80.166 -7.83301 116.499 -23.5s67.833 -36.834 94.5 -63.501c27.333 -27.333 48.833 -59.166 64.5 -95.499s23.5 -75.166 23.5 -116.499s-7.83301 -80 -23.5 -116
s-37.167 -67.667 -64.5 -95c-26.667 -26.667 -58.167 -47.834 -94.5 -63.501s-75.166 -23.5 -116.499 -23.5v0zM449 340l-90 91l-45 -46l135 -135l257 256l-46 45l-211 -211v0z" />
    <glyph glyph-name="uniE60C" unicode="&#xe60c;" 
d="M256 192c0 -6 1.16895 -11.5 3.50195 -16.5s5.5 -9.5 9.5 -13.5c3.33301 -4 7.66602 -7.16699 12.999 -9.5s11 -3.5 17 -3.5h42v-149c0 -8.66699 1.66699 -17 5 -25s8 -14.667 14 -20c6 -6 12.833 -10.667 20.5 -14s15.834 -5 24.501 -5c9.33301 0 17.833 1.66699 25.5 5
s14.5 8 20.5 14c5.33301 5.33301 9.66602 12 12.999 20s5 16.333 5 25v149h86v-149c0 -8.66699 1.66699 -17 5 -25s7.66602 -14.667 12.999 -20c6 -6 12.833 -10.667 20.5 -14s16.167 -5 25.5 -5c8.66699 0 16.834 1.66699 24.501 5s14.5 8 20.5 14
c6 5.33301 10.667 12 14 20s5 16.333 5 25v149h42c6 0 11.667 1.16699 17 3.5s9.66602 5.5 12.999 9.5c4 4 7.16699 8.5 9.5 13.5s3.5 10.5 3.5 16.5v427h-512v-427v0zM149.002 619c-8.66699 0 -16.834 -1.66699 -24.501 -5s-14.5 -8 -20.5 -14s-10.667 -12.833 -14 -20.5
s-5 -15.834 -5 -24.501v-299c0 -8.66699 1.66699 -17 5 -25s8 -14.667 14 -20c6 -6 12.833 -10.667 20.5 -14s15.834 -5 24.501 -5c9.33301 0 17.833 1.66699 25.5 5s14.5 8 20.5 14c5.33301 5.33301 9.66602 12 12.999 20s5 16.333 5 25v299
c0 8.66699 -1.66699 16.834 -5 24.501s-7.66602 14.5 -12.999 20.5c-6 6 -12.833 10.667 -20.5 14s-16.167 5 -25.5 5v0zM875.002 619c-9.33301 0 -17.833 -1.66699 -25.5 -5s-14.5 -8 -20.5 -14c-5.33301 -6 -9.66602 -12.833 -12.999 -20.5s-5 -15.834 -5 -24.501v-299
c0 -8.66699 1.66699 -17 5 -25s7.66602 -14.667 12.999 -20c6 -6 12.833 -10.667 20.5 -14s16.167 -5 25.5 -5c8.66699 0 16.834 1.66699 24.501 5s14.5 8 20.5 14c6 5.33301 10.667 12 14 20s5 16.333 5 25v299c0 8.66699 -1.66699 16.834 -5 24.501s-8 14.5 -14 20.5
s-12.833 10.667 -20.5 14s-15.834 5 -24.501 5v0zM663.002 868l55.0039 56.0029c2 2 3.66699 4.16699 5 6.5s2 5.16602 2 8.49902c0 2.66699 -0.666992 5.16699 -2 7.5s-3 4.83301 -5 7.5c-2 2 -4.33301 3.5 -7 4.5s-5.33398 1.5 -8.00098 1.5s-5.33398 -0.5 -8.00098 -1.5
s-5 -2.5 -7 -4.5l-63 -63c-8.66699 4 -17.5 7.66699 -26.5 11s-18.167 6 -27.5 8c-9.33301 2.66699 -19 4.5 -29 5.5s-20 1.5 -30 1.5s-20 -0.5 -30 -1.5s-19.667 -2.83301 -29 -5.5c-10 -2 -19.5 -4.66699 -28.5 -8s-17.833 -7.33301 -26.5 -12l-63 64
c-2 2 -4.33301 3.5 -7 4.5s-5.33398 1.5 -8.00098 1.5s-5.33398 -0.5 -8.00098 -1.5s-5 -2.5 -7 -4.5s-3.5 -4.33301 -4.5 -7s-1.5 -5.33398 -1.5 -8.00098s0.5 -5.33398 1.5 -8.00098s2.5 -5 4.5 -7l56 -56c-16 -12 -30.5 -25.5 -43.5 -40.5s-23.833 -31.167 -32.5 -48.5
c-9.33301 -18 -16.5 -36.833 -21.5 -56.5s-7.5 -40.167 -7.5 -61.5h512c0 21.333 -2.5 42 -7.5 62s-12.167 38.667 -21.5 56s-20.333 33.5 -33 48.5s-27 28.5 -43 40.5v0zM427.006 747.003h-43v42h43v-42v0zM640.006 747.003h-43v42h43v-42v0z" />
    <glyph glyph-name="uniE60D" unicode="&#xe60d;" 
d="M853 875l-682.001 0.000976562c-12 0 -23.167 -2.33301 -33.5 -7s-19.166 -10.667 -26.499 -18c-8 -8 -14.167 -17.167 -18.5 -27.5s-6.5 -21.5 -6.5 -33.5l-1 -768l171 171h597c12 0 23.167 2.16699 33.5 6.5s19.5 10.5 27.5 18.5c7.33301 8 13.333 17.167 18 27.5
s7 21.166 7 32.499v512c0 12 -2.33301 23.167 -7 33.5s-10.667 19.5 -18 27.5c-8 7.33301 -17.167 13.333 -27.5 18s-21.5 7 -33.5 7v0zM554.999 491.001h-86v256h86v-256v0zM554.999 320.001h-86v85h86v-85v0z" />
    <glyph glyph-name="uniE60E" unicode="&#xe60e;" 
d="M811 448h-86v-128h-128v-85h214v213v0zM299 576h128v85h-214v-213h86v128v0zM896 832h-768c-12 0 -23.167 -2.16699 -33.5 -6.5s-19.166 -10.5 -26.499 -18.5c-8 -8 -14.167 -17.167 -18.5 -27.5s-6.5 -21.166 -6.5 -32.499v-598c0 -11.333 2.16699 -22.166 6.5 -32.499
s10.5 -19.5 18.5 -27.5c7.33301 -8 16.166 -14.167 26.499 -18.5s21.5 -6.5 33.5 -6.5h768c12 0 23.167 2.16699 33.5 6.5s19.166 10.5 26.499 18.5c8 8 14.167 17.167 18.5 27.5s6.5 21.166 6.5 32.499v598c0 11.333 -2.16699 22.166 -6.5 32.499s-10.5 19.5 -18.5 27.5
c-7.33301 8 -16.166 14.167 -26.499 18.5s-21.5 6.5 -33.5 6.5v0zM896 149h-768v598h768v-598v0z" />
    <glyph glyph-name="uniE60F" unicode="&#xe60f;" 
d="M811 832h-598c-11.333 0 -22.166 -2.16699 -32.499 -6.5s-19.5 -10.5 -27.5 -18.5s-14.167 -17.167 -18.5 -27.5s-6.5 -21.166 -6.5 -32.499v-598c0 -11.333 2.16699 -22.166 6.5 -32.499s10.5 -19.5 18.5 -27.5s17.167 -14.167 27.5 -18.5s21.166 -6.5 32.499 -6.5h598
c11.333 0 22.166 2.16699 32.499 6.5s19.5 10.5 27.5 18.5s14.167 17.167 18.5 27.5s6.5 21.166 6.5 32.499v598c0 11.333 -2.16699 22.166 -6.5 32.499s-10.5 19.5 -18.5 27.5s-17.167 14.167 -27.5 18.5s-21.166 6.5 -32.499 6.5v0zM384 235h-85v298h85v-298v0zM555 235
h-86v426h86v-426v0zM725 235h-85v170h85v-170v0z" />
    <glyph glyph-name="uniE610" unicode="&#xe610;" 
d="M811 832h-179c-4 12.667 -10 24.167 -18 34.5s-17.333 19.166 -28 26.499c-10 8 -21.333 14 -34 18s-26 6 -40 6s-27.333 -2 -40 -6s-24 -10 -34 -18c-10.667 -7.33301 -20 -16.166 -28 -26.499s-14 -21.833 -18 -34.5h-179c-11.333 0 -22.166 -2.16699 -32.499 -6.5
s-19.5 -10.5 -27.5 -18.5s-14.167 -17.167 -18.5 -27.5s-6.5 -21.166 -6.5 -32.499v-598c0 -11.333 2.16699 -22.166 6.5 -32.499s10.5 -19.5 18.5 -27.5s17.167 -14.167 27.5 -18.5s21.166 -6.5 32.499 -6.5h598c11.333 0 22.166 2.16699 32.499 6.5s19.5 10.5 27.5 18.5
s14.167 17.167 18.5 27.5s6.5 21.166 6.5 32.499v598c0 11.333 -2.16699 22.166 -6.5 32.499s-10.5 19.5 -18.5 27.5s-17.167 14.167 -27.5 18.5s-21.166 6.5 -32.499 6.5v0zM512 832c6 0 11.5 -1.16699 16.5 -3.5s9.5 -5.16602 13.5 -8.49902
c4 -4 7.16699 -8.66699 9.5 -14s3.5 -11 3.5 -17s-1.16699 -11.5 -3.5 -16.5s-5.5 -9.5 -9.5 -13.5s-8.5 -7 -13.5 -9s-10.5 -3 -16.5 -3s-11.5 1 -16.5 3s-9.5 5 -13.5 9s-7.16699 8.5 -9.5 13.5s-3.5 10.5 -3.5 16.5s1.16699 11.667 3.5 17s5.5 10 9.5 14
c4 3.33301 8.5 6.16602 13.5 8.49902s10.5 3.5 16.5 3.5v0zM597 235h-298v85h298v-85v0zM725 405h-426v86h426v-86v0zM725 576h-426v85h426v-85v0z" />
    <glyph glyph-name="uniE611" unicode="&#xe611;" 
d="M811 832h-179c-4 12.667 -10 24.167 -18 34.5s-17.333 19.166 -28 26.499c-10 8 -21.333 14 -34 18s-26 6 -40 6s-27.333 -2 -40 -6s-24 -10 -34 -18c-10.667 -7.33301 -20 -16.166 -28 -26.499s-14 -21.833 -18 -34.5h-179c-11.333 0 -22.166 -2.16699 -32.499 -6.5
s-19.5 -10.5 -27.5 -18.5s-14.167 -17.167 -18.5 -27.5s-6.5 -21.166 -6.5 -32.499v-598c0 -11.333 2.16699 -22.166 6.5 -32.499s10.5 -19.5 18.5 -27.5s17.167 -14.167 27.5 -18.5s21.166 -6.5 32.499 -6.5h598c11.333 0 22.166 2.16699 32.499 6.5s19.5 10.5 27.5 18.5
s14.167 17.167 18.5 27.5s6.5 21.166 6.5 32.499v598c0 11.333 -2.16699 22.166 -6.5 32.499s-10.5 19.5 -18.5 27.5s-17.167 14.167 -27.5 18.5s-21.166 6.5 -32.499 6.5v0zM512 832c6 0 11.5 -1.16699 16.5 -3.5s9.5 -5.16602 13.5 -8.49902
c4 -4 7.16699 -8.66699 9.5 -14s3.5 -11 3.5 -17s-1.16699 -11.5 -3.5 -16.5s-5.5 -9.5 -9.5 -13.5s-8.5 -7 -13.5 -9s-10.5 -3 -16.5 -3s-11.5 1 -16.5 3s-9.5 5 -13.5 9s-7.16699 8.5 -9.5 13.5s-3.5 10.5 -3.5 16.5s1.16699 11.667 3.5 17s5.5 10 9.5 14
c4 3.33301 8.5 6.16602 13.5 8.49902s10.5 3.5 16.5 3.5v0zM512 661c17.333 0 33.833 -3.33301 49.5 -10s29.167 -15.667 40.5 -27c12 -12 21.333 -25.667 28 -41s10 -32 10 -50c0 -17.333 -3.33301 -33.833 -10 -49.5s-16 -29.167 -28 -40.5
c-11.333 -12 -24.833 -21.333 -40.5 -28s-32.167 -10 -49.5 -10s-33.833 3.33301 -49.5 10s-29.167 16 -40.5 28c-12 11.333 -21.333 24.833 -28 40.5s-10 32.167 -10 49.5c0 18 3.33301 34.667 10 50s16 29 28 41c11.333 11.333 24.833 20.333 40.5 27s32.167 10 49.5 10v0
zM768 149h-512v60c0 21.333 9.33301 40.166 28 56.499s41.334 30.166 68.001 41.499s54.667 19.833 84 25.5s54.666 8.5 75.999 8.5s46.666 -2.83301 75.999 -8.5s57.333 -14.167 84 -25.5s49.334 -25.166 68.001 -41.499s28 -35.166 28 -56.499v-60v0z" />
    <glyph glyph-name="uniE612" unicode="&#xe612;" 
d="M811 832h-179c-4 12.667 -10 24.167 -18 34.5s-17.333 19.166 -28 26.499c-10 8 -21.333 14 -34 18s-26 6 -40 6s-27.333 -2 -40 -6s-24 -10 -34 -18c-10.667 -7.33301 -20 -16.166 -28 -26.499s-14 -21.833 -18 -34.5h-179c-11.333 0 -22.166 -2.16699 -32.499 -6.5
s-19.5 -10.5 -27.5 -18.5s-14.167 -17.167 -18.5 -27.5s-6.5 -21.166 -6.5 -32.499v-598c0 -11.333 2.16699 -22.166 6.5 -32.499s10.5 -19.5 18.5 -27.5s17.167 -14.167 27.5 -18.5s21.166 -6.5 32.499 -6.5h598c11.333 0 22.166 2.16699 32.499 6.5s19.5 10.5 27.5 18.5
s14.167 17.167 18.5 27.5s6.5 21.166 6.5 32.499v598c0 11.333 -2.16699 22.166 -6.5 32.499s-10.5 19.5 -18.5 27.5s-17.167 14.167 -27.5 18.5s-21.166 6.5 -32.499 6.5v0zM555 192h-86v85h86v-85v0zM555 363h-86v256h86v-256v0zM512 747c-6 0 -11.5 1 -16.5 3
s-9.5 5 -13.5 9s-7.16699 8.5 -9.5 13.5s-3.5 10.5 -3.5 16.5s1.16699 11.667 3.5 17s5.5 10 9.5 14c4 3.33301 8.5 6.16602 13.5 8.49902s10.5 3.5 16.5 3.5s11.5 -1.16699 16.5 -3.5s9.5 -5.16602 13.5 -8.49902c4 -4 7.16699 -8.66699 9.5 -14s3.5 -11 3.5 -17
s-1.16699 -11.5 -3.5 -16.5s-5.5 -9.5 -9.5 -13.5s-8.5 -7 -13.5 -9s-10.5 -3 -16.5 -3v0z" />
    <glyph glyph-name="uniE613" unicode="&#xe613;" 
d="M811 832h-179c-4 12.667 -10 24.167 -18 34.5s-17.333 19.166 -28 26.499c-10 8 -21.333 14 -34 18s-26 6 -40 6s-27.333 -2 -40 -6s-24 -10 -34 -18c-10.667 -7.33301 -20 -16.166 -28 -26.499s-14 -21.833 -18 -34.5h-179c-11.333 0 -22.166 -2.16699 -32.499 -6.5
s-19.5 -10.5 -27.5 -18.5s-14.167 -17.167 -18.5 -27.5s-6.5 -21.166 -6.5 -32.499v-598c0 -11.333 2.16699 -22.166 6.5 -32.499s10.5 -19.5 18.5 -27.5s17.167 -14.167 27.5 -18.5s21.166 -6.5 32.499 -6.5h598c11.333 0 22.166 2.16699 32.499 6.5s19.5 10.5 27.5 18.5
s14.167 17.167 18.5 27.5s6.5 21.166 6.5 32.499v598c0 11.333 -2.16699 22.166 -6.5 32.499s-10.5 19.5 -18.5 27.5s-17.167 14.167 -27.5 18.5s-21.166 6.5 -32.499 6.5v0zM512 832c6 0 11.5 -1.16699 16.5 -3.5s9.5 -5.16602 13.5 -8.49902
c4 -4 7.16699 -8.66699 9.5 -14s3.5 -11 3.5 -17s-1.16699 -11.5 -3.5 -16.5s-5.5 -9.5 -9.5 -13.5s-8.5 -7 -13.5 -9s-10.5 -3 -16.5 -3s-11.5 1 -16.5 3s-9.5 5 -13.5 9s-7.16699 8.5 -9.5 13.5s-3.5 10.5 -3.5 16.5s1.16699 11.667 3.5 17s5.5 10 9.5 14
c4 3.33301 8.5 6.16602 13.5 8.49902s10.5 3.5 16.5 3.5v0zM683 320h-171v-128l-213 213l213 214v-128h171v-171v0z" />
    <glyph glyph-name="uniE614" unicode="&#xe614;" 
d="M811 832h-179c-4 12.667 -10 24.167 -18 34.5s-17.333 19.166 -28 26.499c-10 8 -21.333 14 -34 18s-26 6 -40 6s-27.333 -2 -40 -6s-24 -10 -34 -18c-10.667 -7.33301 -20 -16.166 -28 -26.499s-14 -21.833 -18 -34.5h-179c-11.333 0 -22.166 -2.16699 -32.499 -6.5
s-19.5 -10.5 -27.5 -18.5s-14.167 -17.167 -18.5 -27.5s-6.5 -21.166 -6.5 -32.499v-598c0 -11.333 2.16699 -22.166 6.5 -32.499s10.5 -19.5 18.5 -27.5s17.167 -14.167 27.5 -18.5s21.166 -6.5 32.499 -6.5h598c11.333 0 22.166 2.16699 32.499 6.5s19.5 10.5 27.5 18.5
s14.167 17.167 18.5 27.5s6.5 21.166 6.5 32.499v598c0 11.333 -2.16699 22.166 -6.5 32.499s-10.5 19.5 -18.5 27.5s-17.167 14.167 -27.5 18.5s-21.166 6.5 -32.499 6.5v0zM512 832c6 0 11.5 -1.16699 16.5 -3.5s9.5 -5.16602 13.5 -8.49902
c4 -4 7.16699 -8.66699 9.5 -14s3.5 -11 3.5 -17s-1.16699 -11.5 -3.5 -16.5s-5.5 -9.5 -9.5 -13.5s-8.5 -7 -13.5 -9s-10.5 -3 -16.5 -3s-11.5 1 -16.5 3s-9.5 5 -13.5 9s-7.16699 8.5 -9.5 13.5s-3.5 10.5 -3.5 16.5s1.16699 11.667 3.5 17s5.5 10 9.5 14
c4 3.33301 8.5 6.16602 13.5 8.49902s10.5 3.5 16.5 3.5v0zM512 192l-213 213h128v171h170v-171h128l-213 -213v0z" />
    <glyph glyph-name="uniE615" unicode="&#xe615;" 
d="M811 832h-179c-4 12.667 -10 24.167 -18 34.5s-17.333 19.166 -28 26.499c-10 8 -21.333 14 -34 18s-26 6 -40 6s-27.333 -2 -40 -6s-24 -10 -34 -18c-10.667 -7.33301 -20 -16.166 -28 -26.499s-14 -21.833 -18 -34.5h-179c-11.333 0 -22.166 -2.16699 -32.499 -6.5
s-19.5 -10.5 -27.5 -18.5s-14.167 -17.167 -18.5 -27.5s-6.5 -21.166 -6.5 -32.499v-598c0 -11.333 2.16699 -22.166 6.5 -32.499s10.5 -19.5 18.5 -27.5s17.167 -14.167 27.5 -18.5s21.166 -6.5 32.499 -6.5h598c11.333 0 22.166 2.16699 32.499 6.5s19.5 10.5 27.5 18.5
s14.167 17.167 18.5 27.5s6.5 21.166 6.5 32.499v598c0 11.333 -2.16699 22.166 -6.5 32.499s-10.5 19.5 -18.5 27.5s-17.167 14.167 -27.5 18.5s-21.166 6.5 -32.499 6.5v0zM512 832c6 0 11.5 -1.16699 16.5 -3.5s9.5 -5.16602 13.5 -8.49902
c4 -4 7.16699 -8.66699 9.5 -14s3.5 -11 3.5 -17s-1.16699 -11.5 -3.5 -16.5s-5.5 -9.5 -9.5 -13.5s-8.5 -7 -13.5 -9s-10.5 -3 -16.5 -3s-11.5 1 -16.5 3s-9.5 5 -13.5 9s-7.16699 8.5 -9.5 13.5s-3.5 10.5 -3.5 16.5s1.16699 11.667 3.5 17s5.5 10 9.5 14
c4 3.33301 8.5 6.16602 13.5 8.49902s10.5 3.5 16.5 3.5v0zM427 235l-171 170l60 61l111 -111l281 281l60 -60l-341 -341v0z" />
    <glyph glyph-name="uniE616" unicode="&#xe616;" 
d="M512 704l0.000976562 -128.003l171 171l-171 170v-128c-47.333 0 -91.666 -8.83301 -132.999 -26.5s-77.333 -42.167 -108 -73.5c-31.333 -30.667 -55.833 -66.667 -73.5 -108s-26.5 -85.666 -26.5 -132.999c0 -16.667 1.16699 -33 3.5 -49s5.83301 -31.667 10.5 -47
c4 -15.333 9.33301 -30.166 16 -44.499s14.334 -28.166 23.001 -41.499l62 63c-4.66699 8.66699 -8.83398 17.667 -12.501 27s-6.83398 19 -9.50098 29s-4.66699 20.333 -6 31s-2 21.334 -2 32.001c0 35.333 6.66699 68.5 20 99.5s31.666 58.167 54.999 81.5
s50.5 41.666 81.5 54.999s64.167 20 99.5 20v0zM800.001 629.997l-62.001 -62.9971c4.66699 -8.66699 8.83398 -17.667 12.501 -27s6.83398 -19 9.50098 -29s4.66699 -20.333 6 -31s2 -21.334 2 -32.001c0 -35.333 -6.66699 -68.5 -20 -99.5s-31.666 -58.167 -54.999 -81.5
s-50.5 -41.666 -81.5 -54.999s-64.167 -20 -99.5 -20v128l-171 -171l171 -170v128c47.333 0 91.666 8.83301 132.999 26.5s77.333 42.167 108 73.5c31.333 30.667 55.833 66.667 73.5 108s26.5 85.666 26.5 132.999c0 16.667 -1.16699 33 -3.5 49s-5.83301 31.667 -10.5 47
c-4 15.333 -9.33301 30.166 -16 44.499s-14.334 28.166 -23.001 41.499v0z" />
    <glyph glyph-name="uniE617" unicode="&#xe617;" 
d="M826 532c-7.33301 36.667 -20.4971 70.665 -39.4971 101.998s-42.5 58.666 -70.5 81.999c-27.333 22.667 -58.5 40.5 -93.5 53.5s-71.833 19.5 -110.5 19.5c-30.667 0 -60.167 -4.16699 -88.5 -12.5s-54.833 -19.833 -79.5 -34.5
c-24.667 -15.333 -46.834 -33.666 -66.501 -54.999s-36.167 -44.666 -49.5 -69.999c-32 -3.33301 -61.833 -12.333 -89.5 -27s-51.834 -33.334 -72.501 -56.001s-36.834 -48.667 -48.501 -78s-17.5 -60.333 -17.5 -93c0 -35.333 6.66699 -68.666 20 -99.999
s31.666 -58.333 54.999 -81c23.333 -23.333 50.5 -41.666 81.5 -54.999s64.167 -20 99.5 -20h555c29.333 0 57 5.5 83 16.5s48.333 26.167 67 45.5c19.333 19.333 34.666 42 45.999 68s17 53.667 17 83c0 28 -5.16699 54.5 -15.5 79.5s-24.5 46.833 -42.5 65.5
c-17.333 19.333 -38.166 34.833 -62.499 46.5s-50.166 18.5 -77.499 20.5v0zM597.003 404.998v-170h-170v170h-128l213 214l213 -214h-128v0z" />
    <glyph glyph-name="uniE618" unicode="&#xe618;" 
d="M768 875h-512c-12 0 -23.167 -2.33301 -33.5 -7s-19.166 -10.667 -26.499 -18c-8 -8 -14.167 -17.167 -18.5 -27.5s-6.5 -21.5 -6.5 -33.5v-682c0 -12 2.16699 -23.167 6.5 -33.5s10.5 -19.5 18.5 -27.5c7.33301 -7.33301 16.166 -13.333 26.499 -18s21.5 -7 33.5 -7h512
c12 0 23.167 2.33301 33.5 7s19.166 10.667 26.499 18c8 8 14.167 17.167 18.5 27.5s6.5 21.5 6.5 33.5v682c0 12 -2.16699 23.167 -6.5 33.5s-10.5 19.5 -18.5 27.5c-7.33301 7.33301 -16.166 13.333 -26.499 18s-21.5 7 -33.5 7v0zM256 789h213v-341l-106 64l-107 -64v341
v0z" />
    <glyph glyph-name="uniE619" unicode="&#xe619;" 
d="M725 832h-426.001c-12 0 -23.167 -2.16699 -33.5 -6.5s-19.166 -10.5 -26.499 -18.5c-8 -8 -14.167 -17.167 -18.5 -27.5s-6.5 -21.166 -6.5 -32.499l-1 -683l299 128l299 -128v683c0 11.333 -2.33301 22.166 -7 32.499s-10.667 19.5 -18 27.5
c-8 8 -17.167 14.167 -27.5 18.5s-21.5 6.5 -33.5 6.5v0z" />
    <glyph glyph-name="uniE61A" unicode="&#xe61a;" 
d="M725 832h-426.001c-12 0 -23.167 -2.16699 -33.5 -6.5s-19.166 -10.5 -26.499 -18.5c-8 -8 -14.167 -17.167 -18.5 -27.5s-6.5 -21.166 -6.5 -32.499l-1 -683l299 128l299 -128v683c0 11.333 -2.33301 22.166 -7 32.499s-10.667 19.5 -18 27.5
c-8 8 -17.167 14.167 -27.5 18.5s-21.5 6.5 -33.5 6.5v0zM724.999 192l-213 93l-213 -93v555h426v-555v0z" />
    <glyph glyph-name="uniE61B" unicode="&#xe61b;" 
d="M853 619h-120c-4.66699 8 -9.83398 15.833 -15.501 23.5s-11.834 15.167 -18.501 22.5c-6 6.66699 -12.667 13.167 -20 19.5s-15 12.166 -23 17.499l69 70l-60 60l-93 -93c-4.66699 1.33301 -9.5 2.5 -14.5 3.5s-9.83301 1.83301 -14.5 2.5
c-5.33301 0.666992 -10.5 1.16699 -15.5 1.5s-10.167 0.5 -15.5 0.5s-10.5 -0.166992 -15.5 -0.5s-10.167 -0.833008 -15.5 -1.5c-4.66699 -0.666992 -9.5 -1.5 -14.5 -2.5s-9.83301 -2.16699 -14.5 -3.5l-93 93l-60 -60l69 -70c-8 -5.33301 -15.667 -11.166 -23 -17.499
s-14 -12.833 -20 -19.5c-6.66699 -7.33301 -12.834 -14.833 -18.501 -22.5s-10.834 -15.5 -15.501 -23.5h-120v-86h89c-0.666992 -3.33301 -1.16699 -6.66602 -1.5 -9.99902s-0.833008 -7 -1.5 -11c0 -3.33301 -0.166992 -6.83301 -0.5 -10.5s-0.5 -7.16699 -0.5 -10.5v-43
h-85v-85h85v-43c0 -3.33301 0.166992 -6.83301 0.5 -10.5s0.5 -7.5 0.5 -11.5c0.666992 -3.33301 1.16699 -6.66602 1.5 -9.99902s0.833008 -7 1.5 -11h-89v-85h120c10.667 -19.333 23.834 -36.833 39.501 -52.5s32.834 -29.167 51.501 -40.5
c19.333 -10.667 39.833 -19.167 61.5 -25.5s44.5 -9.5 68.5 -9.5s46.833 3.16699 68.5 9.5s42.167 14.833 61.5 25.5c18.667 11.333 35.834 24.833 51.501 40.5s28.834 33.167 39.501 52.5h120v85h-89c0.666992 4 1.16699 7.66699 1.5 11s0.833008 6.66602 1.5 9.99902
c0 4 0.166992 7.83301 0.5 11.5s0.5 7.16699 0.5 10.5v43h85v85h-85v43c0 3.33301 -0.166992 6.83301 -0.5 10.5s-0.5 7.16699 -0.5 10.5c-0.666992 4 -1.16699 7.66699 -1.5 11s-0.833008 6.66602 -1.5 9.99902h89v86v0zM597 277h-170v86h170v-86v0zM597 448h-170v85h170
v-85v0z" />
    <glyph glyph-name="uniE61C" unicode="&#xe61c;" 
d="M811 619l-170.998 -171.002h128c0 -35.333 -6.66699 -68.5 -20 -99.5s-31.666 -58.167 -54.999 -81.5s-50.5 -41.666 -81.5 -54.999s-64.167 -20 -99.5 -20c-10.667 0 -21.334 0.666992 -32.001 2s-21 3.33301 -31 6s-19.667 5.83398 -29 9.50098
s-18.666 7.83398 -27.999 12.501l-62 -63c13.333 -8 27.166 -15.333 41.499 -22s29.166 -12 44.499 -16c15.333 -4.66699 31 -8.16699 47 -10.5s32.333 -3.5 49 -3.5c47.333 0 91.666 8.83301 132.999 26.5s77.333 42.167 108 73.5c31.333 30.667 55.833 66.667 73.5 108
s26.5 85.666 26.5 132.999h128l-170 171v0zM256.002 447.998c0 35.333 6.66504 68.502 19.998 99.502s31.666 58.167 54.999 81.5s50.5 41.666 81.5 54.999s64.167 20 99.5 20c10.667 0 21.334 -0.666992 32.001 -2s21 -3.33301 31 -6s19.667 -5.83398 29 -9.50098
s18.666 -7.83398 27.999 -12.501l62 63c-13.333 8 -27.166 15.333 -41.499 22s-29.166 12 -44.499 16c-15.333 4.66699 -31 8.16699 -47 10.5s-32.333 3.5 -49 3.5c-47.333 0 -91.666 -8.83301 -132.999 -26.5s-77.333 -42.167 -108 -73.5
c-31.333 -30.667 -55.833 -66.667 -73.5 -108s-26.5 -85.666 -26.5 -132.999h-128l170 -171l171 171h-128v0z" />
    <glyph glyph-name="uniE61D" unicode="&#xe61d;" 
d="M768 875h-512c-12 0 -23.167 -2.33301 -33.5 -7s-19.166 -10.667 -26.499 -18c-8 -8 -14.167 -17.167 -18.5 -27.5s-6.5 -21.5 -6.5 -33.5v-682c0 -12 2.16699 -23.167 6.5 -33.5s10.5 -19.5 18.5 -27.5c7.33301 -7.33301 16.166 -13.333 26.499 -18s21.5 -7 33.5 -7h512
c12 0 23.167 2.33301 33.5 7s19.166 10.667 26.499 18c8 8 14.167 17.167 18.5 27.5s6.5 21.5 6.5 33.5v682c0 12 -2.16699 23.167 -6.5 33.5s-10.5 19.5 -18.5 27.5c-7.33301 7.33301 -16.166 13.333 -26.499 18s-21.5 7 -33.5 7v0zM256 789h213v-341l-106 64l-107 -64v341
v0z" />
    <glyph glyph-name="uniE61E" unicode="&#xe61e;" 
d="M171 448h682v-256h-682v256zM853 789h-682.001c-12 0 -23.167 -2.16699 -33.5 -6.5s-19.166 -10.5 -26.499 -18.5c-8 -7.33301 -14.167 -16.166 -18.5 -26.499s-6.5 -21.5 -6.5 -33.5l-1 -512c0 -12 2.33301 -23.167 7 -33.5s10.667 -19.166 18 -26.499
c8 -8 17.167 -14.167 27.5 -18.5s21.5 -6.5 33.5 -6.5h682c12 0 23.167 2.16699 33.5 6.5s19.5 10.5 27.5 18.5c7.33301 7.33301 13.333 16.166 18 26.499s7 21.5 7 33.5v512c0 12 -2.33301 23.167 -7 33.5s-10.667 19.166 -18 26.499c-8 8 -17.167 14.167 -27.5 18.5
s-21.5 6.5 -33.5 6.5v0zM852.999 192h-682v256h682v-256v0zM852.999 619h-682v85h682v-85v0z" />
    <glyph glyph-name="uniE61F" unicode="&#xe61f;" 
d="M128 405h341v427h-341v-427v0zM128 64h341v256h-341v-256v0zM555 64h341v427h-341v-427v0zM555 832v-256h341v256h-341v0z" />
    <glyph glyph-name="uniE620" unicode="&#xe620;" 
d="M256 149c0 -11.333 2.16895 -22.166 6.50195 -32.499s10.5 -19.5 18.5 -27.5s17.167 -14.167 27.5 -18.5s21.166 -6.5 32.499 -6.5h342c11.333 0 22.166 2.16699 32.499 6.5s19.5 10.5 27.5 18.5s14.167 17.167 18.5 27.5s6.5 21.166 6.5 32.499v512h-512v-512v0z
M811.002 789h-150l-42 43h-214l-42 -43h-150v-85h598v85v0z" />
    <glyph glyph-name="uniE621" unicode="&#xe621;" 
d="M597 875h-340.999c-12 0 -23.167 -2.33301 -33.5 -7s-19.166 -10.667 -26.499 -18c-8 -8 -14.167 -17.167 -18.5 -27.5s-6.5 -21.5 -6.5 -33.5v-682c0 -12 2.16699 -23.167 6.5 -33.5s10.166 -19.5 17.499 -27.5c8 -7.33301 17.167 -13.333 27.5 -18s21.5 -7 33.5 -7h512
c12 0 23.167 2.33301 33.5 7s19.166 10.667 26.499 18c8 8 14.167 17.167 18.5 27.5s6.5 21.5 6.5 33.5v512l-256 256v0zM683.001 192h-342v85h342v-85v0zM683.001 363h-342v85h342v-85v0zM555.001 576v235l234 -235h-234v0z" />
    <glyph glyph-name="uniE622" unicode="&#xe622;" 
d="M853 405h-682c-6 0 -11.667 -1 -17 -3s-9.66602 -5 -12.999 -9c-4 -4 -7.16699 -8.66699 -9.5 -14s-3.5 -10.666 -3.5 -15.999v-256c0 -6 1.16699 -11.667 3.5 -17s5.5 -9.66602 9.5 -12.999c3.33301 -4 7.66602 -7.16699 12.999 -9.5s11 -3.5 17 -3.5h682
c6 0 11.667 1.16699 17 3.5s9.66602 5.5 12.999 9.5c4 3.33301 7.16699 7.66602 9.5 12.999s3.5 11 3.5 17v256c0 5.33301 -1.16699 10.666 -3.5 15.999s-5.5 10 -9.5 14c-3.33301 4 -7.66602 7 -12.999 9s-11 3 -17 3v0zM299 149c-12 0 -23.167 2.33301 -33.5 7
s-19.5 10.667 -27.5 18c-7.33301 8 -13.333 17.167 -18 27.5s-7 21.5 -7 33.5c0 11.333 2.33301 22.166 7 32.499s10.667 19.5 18 27.5c8 8 17.167 14.167 27.5 18.5s21.5 6.5 33.5 6.5c11.333 0 22.166 -2.16699 32.499 -6.5s19.5 -10.5 27.5 -18.5
s14.167 -17.167 18.5 -27.5s6.5 -21.166 6.5 -32.499c0 -12 -2.16699 -23.167 -6.5 -33.5s-10.5 -19.5 -18.5 -27.5c-8 -7.33301 -17.167 -13.333 -27.5 -18s-21.166 -7 -32.499 -7v0zM853 832h-682c-6 0 -11.667 -1.16699 -17 -3.5s-9.66602 -5.5 -12.999 -9.5
c-4 -3.33301 -7.16699 -7.66602 -9.5 -12.999s-3.5 -11 -3.5 -17v-256c0 -5.33301 1.16699 -10.666 3.5 -15.999s5.5 -10 9.5 -14c3.33301 -4 7.66602 -7 12.999 -9s11 -3 17 -3h682c6 0 11.667 1 17 3s9.66602 5 12.999 9c4 4 7.16699 8.66699 9.5 14
s3.5 10.666 3.5 15.999v256c0 6 -1.16699 11.667 -3.5 17s-5.5 9.66602 -9.5 12.999c-3.33301 4 -7.66602 7.16699 -12.999 9.5s-11 3.5 -17 3.5v0zM299 576c-12 0 -23.167 2.16699 -33.5 6.5s-19.5 10.5 -27.5 18.5c-7.33301 8 -13.333 17.167 -18 27.5
s-7 21.166 -7 32.499c0 12 2.33301 23.167 7 33.5s10.667 19.5 18 27.5c8 7.33301 17.167 13.333 27.5 18s21.5 7 33.5 7c11.333 0 22.166 -2.33301 32.499 -7s19.5 -10.667 27.5 -18c8 -8 14.167 -17.167 18.5 -27.5s6.5 -21.5 6.5 -33.5
c0 -11.333 -2.16699 -22.166 -6.5 -32.499s-10.5 -19.5 -18.5 -27.5s-17.167 -14.167 -27.5 -18.5s-21.166 -6.5 -32.499 -6.5v0z" />
    <glyph glyph-name="uniE623" unicode="&#xe623;" 
d="M384 270l-178 178l-60 -60l238 -239l512 512l-60 61z" />
    <glyph glyph-name="uniE624" unicode="&#xe624;" 
d="M768 661l-60 61l-271 -271l60 -60l271 270v0zM949 722l-452 -452l-178 178l-60 -60l238 -239l512 512l-60 61v0zM18 388l238 -239l60 61l-238 238l-60 -60v0z" />
    <glyph glyph-name="uniE625" unicode="&#xe625;" 
d="M725 448h-213v-213h213v213v0zM683 917v-85h-342v85h-85v-85h-43c-11.333 0 -22.166 -2.16699 -32.499 -6.5s-19.5 -10.5 -27.5 -18.5c-7.33301 -8 -13.333 -17.167 -18 -27.5s-7 -21.166 -7 -32.499v-598c0 -11.333 2.16699 -22.166 6.5 -32.499s10.5 -19.5 18.5 -27.5
s17.167 -14.167 27.5 -18.5s21.166 -6.5 32.499 -6.5h598c11.333 0 22.166 2.16699 32.499 6.5s19.5 10.5 27.5 18.5s14.167 17.167 18.5 27.5s6.5 21.166 6.5 32.499v598c0 11.333 -2.16699 22.166 -6.5 32.499s-10.5 19.5 -18.5 27.5s-17.167 14.167 -27.5 18.5
s-21.166 6.5 -32.499 6.5h-43v85h-85v0zM811 149h-598v470h598v-470v0z" />
    <glyph glyph-name="uniE626" unicode="&#xe626;" 
d="M430 295l61 -60l213 213l-213 213l-61 -60l111 -110h-413v-86h413l-111 -110v0zM811 832h-598c-11.333 0 -22.166 -2.16699 -32.499 -6.5s-19.5 -10.5 -27.5 -18.5s-14.167 -17.167 -18.5 -27.5s-6.5 -21.166 -6.5 -32.499v-171h85v171h598v-598h-598v171h-85v-171
c0 -11.333 2.16699 -22.166 6.5 -32.499s10.5 -19.5 18.5 -27.5s17.167 -14.167 27.5 -18.5s21.166 -6.5 32.499 -6.5h598c11.333 0 22.166 2.16699 32.499 6.5s19.5 10.5 27.5 18.5s14.167 17.167 18.5 27.5s6.5 21.166 6.5 32.499v598
c0 11.333 -2.16699 22.166 -6.5 32.499s-10.5 19.5 -18.5 27.5s-17.167 14.167 -27.5 18.5s-21.166 6.5 -32.499 6.5v0z" />
    <glyph glyph-name="uniE627" unicode="&#xe627;" 
d="M512 495c-6.66699 0 -12.834 -1.16699 -18.501 -3.5s-10.5 -5.83301 -14.5 -10.5c-4.66699 -4 -8.16699 -8.83301 -10.5 -14.5s-3.5 -11.834 -3.5 -18.501s1.16699 -12.834 3.5 -18.501s5.83301 -10.5 10.5 -14.5c4 -4.66699 8.83301 -8.16699 14.5 -10.5
s11.834 -3.5 18.501 -3.5s12.834 1.16699 18.501 3.5s10.5 5.83301 14.5 10.5c4.66699 4 8.16699 8.83301 10.5 14.5s3.5 11.834 3.5 18.501s-1.16699 12.834 -3.5 18.501s-5.83301 10.5 -10.5 14.5c-4 4.66699 -8.83301 8.16699 -14.5 10.5s-11.834 3.5 -18.501 3.5v0z
M512 875c-58.667 0 -114 -11.167 -166 -33.5s-97.333 -52.833 -136 -91.5s-69.167 -84 -91.5 -136s-33.5 -107.333 -33.5 -166s11.167 -114 33.5 -166s52.833 -97.333 91.5 -136s84 -69.167 136 -91.5s107.333 -33.5 166 -33.5s114 11.167 166 33.5s97.333 52.833 136 91.5
s69.167 84 91.5 136s33.5 107.333 33.5 166s-11.167 114 -33.5 166s-52.833 97.333 -91.5 136s-84 69.167 -136 91.5s-107.333 33.5 -166 33.5v0zM605 355l-349 -163l163 349l349 163l-163 -349v0z" />
    <glyph glyph-name="uniE628" unicode="&#xe628;" 
d="M875 491h-64.001v170c0 12 -2.33301 23.167 -7 33.5s-10.667 19.5 -18 27.5c-8 7.33301 -17.167 13.333 -27.5 18s-21.5 7 -33.5 7h-170v64c0 14.667 -2.83301 28.5 -8.5 41.5s-13.5 24.167 -23.5 33.5c-9.33301 10 -20.5 17.667 -33.5 23s-26.833 8 -41.5 8
s-28.5 -2.66699 -41.5 -8s-24.167 -13 -33.5 -23c-10 -9.33301 -17.833 -20.5 -23.5 -33.5s-8.5 -26.833 -8.5 -41.5v-64h-170c-12 0 -23.167 -2.33301 -33.5 -7s-19.166 -10.667 -26.499 -18c-8 -8 -14.167 -17.167 -18.5 -27.5s-6.5 -21.5 -6.5 -33.5v-162h63
c16 0 31 -3 45 -9s26.333 -14.333 37 -25c10 -10 18.167 -22 24.5 -36s9.5 -29 9.5 -45s-3.16699 -31 -9.5 -45s-14.5 -26 -24.5 -36c-10.667 -10.667 -23 -19 -37 -25s-29 -9 -45 -9h-63l-1 -162c0 -12 2.33301 -23.167 7 -33.5s10.667 -19.5 18 -27.5
c8 -7.33301 17.167 -13.333 27.5 -18s21.5 -7 33.5 -7h162v64c0 16 3 31 9 45s14.333 26.333 25 37c10 10 22 18.167 36 24.5s29 9.5 45 9.5s31 -3.16699 45 -9.5s26 -14.5 36 -24.5c10.667 -10.667 19 -23 25 -37s9 -29 9 -45v-64h162c12 0 23.167 2.33301 33.5 7
s19.5 10.667 27.5 18c7.33301 8 13.333 17.167 18 27.5s7 21.5 7 33.5v170h64c14.667 0 28.5 2.83301 41.5 8.5s24.167 13.5 33.5 23.5c10 9.33301 17.667 20.5 23 33.5s8 26.833 8 41.5s-2.66699 28.5 -8 41.5s-13 24.167 -23 33.5c-9.33301 10 -20.5 17.833 -33.5 23.5
s-26.833 8.5 -41.5 8.5v0z" />
    <glyph glyph-name="uniE629" unicode="&#xe629;" 
d="M627 230c-8 -6 -16.5039 -11.333 -25.5039 -16s-18.5 -8.66699 -28.5 -12c-9.33301 -3.33301 -19.166 -5.83301 -29.499 -7.5s-20.833 -2.5 -31.5 -2.5s-21.167 0.833008 -31.5 2.5s-20.166 4.16699 -29.499 7.5c-10 3.33301 -19.5 7.33301 -28.5 12s-17.5 10 -25.5 16
c-2 2 -4.5 3.33301 -7.5 4s-5.83301 1 -8.5 1c-2.66699 -0.666992 -5.16699 -1.66699 -7.5 -3s-4.5 -3.33301 -6.5 -6c-2 -2 -3.33301 -4.33301 -4 -7s-0.666992 -5.33398 0 -8.00098c0 -2.66699 0.666992 -5.33398 2 -8.00098s3.33301 -5 6 -7
c10 -7.33301 20.5 -13.833 31.5 -19.5s22.5 -10.5 34.5 -14.5s24.333 -7.16699 37 -9.5s25.334 -3.5 38.001 -3.5s25.334 1.16699 38.001 3.5s25 5.5 37 9.5s23.5 8.83301 34.5 14.5s21.5 12.167 31.5 19.5c2.66699 2 4.66699 4.33301 6 7s2 5.33398 2 8.00098
c0.666992 2.66699 0.666992 5.33398 0 8.00098s-2 5 -4 7c-2 2.66699 -4.16699 4.66699 -6.5 6s-4.83301 2.33301 -7.5 3c-2.66699 0 -5.5 -0.333008 -8.5 -1s-5.5 -2 -7.5 -4v0zM404.996 427c0 -6 -1 -11.667 -3 -17s-5 -10 -9 -14
c-4 -3.33301 -8.5 -6.16602 -13.5 -8.49902s-10.5 -3.5 -16.5 -3.5s-11.667 1.16699 -17 3.5s-10 5.16602 -14 8.49902c-3.33301 4 -6.16602 8.66699 -8.49902 14s-3.5 11 -3.5 17s1.16699 11.5 3.5 16.5s5.16602 9.5 8.49902 13.5c4 4 8.66699 7 14 9s11 3 17 3
s11.5 -1 16.5 -3s9.5 -5 13.5 -9s7 -8.5 9 -13.5s3 -10.5 3 -16.5v0zM511.996 960c-70.667 0 -137.167 -13.333 -199.5 -40s-116.5 -63.334 -162.5 -110.001c-46.667 -46 -83.334 -100.167 -110.001 -162.5s-40 -128.833 -40 -199.5s13.333 -137.167 40 -199.5
s63.334 -116.5 110.001 -162.5c46 -46.667 100.167 -83.334 162.5 -110.001s128.833 -40 199.5 -40s137.167 13.333 199.5 40s116.5 63.334 162.5 110.001c46.667 46 83.334 100.167 110.001 162.5s40 128.833 40 199.5s-13.333 137.167 -40 199.5
s-63.334 116.5 -110.001 162.5c-46 46.667 -100.167 83.334 -162.5 110.001s-128.833 40 -199.5 40v0zM851.996 328c-12 -40 -28.999 -76.832 -50.999 -110.499s-48 -62.834 -78 -87.501s-63.167 -43.834 -99.5 -57.501s-74.5 -20.5 -114.5 -20.5
c-40.667 0 -79.167 7 -115.5 21s-69.5 33 -99.5 57c-30 24.667 -56 54 -78 88s-39 71 -51 111c-12.667 0.666992 -24.5 4 -35.5 10s-20.5 13.667 -28.5 23c-8 10 -14.333 21.167 -19 33.5s-7 25.833 -7 40.5c0 13.333 2.16699 26 6.5 38s10.166 22.667 17.499 32
s16.166 17.166 26.499 23.499s21.5 10.5 33.5 12.5v0c22 16 42.833 33 62.5 51s37.5 36.667 53.5 56c15.333 18.667 28.166 37.334 38.499 56.001s16.833 36.334 19.5 53.001v0v0c14.667 -28 38.167 -55.167 70.5 -81.5s70.833 -49.833 115.5 -70.5
c44.667 -20 94.334 -36 149.001 -48s111.334 -17.333 170.001 -16c2 0.666992 4 1.16699 6 1.5s4.33301 0.5 7 0.5c13.333 0 26 -2.83301 38 -8.5s22.333 -13.5 31 -23.5c9.33301 -10 16.5 -21.5 21.5 -34.5s7.5 -26.833 7.5 -41.5c0 -15.333 -2.5 -29.5 -7.5 -42.5
s-11.833 -24.167 -20.5 -33.5c-9.33301 -10 -19.833 -17.833 -31.5 -23.5s-24.167 -8.5 -37.5 -8.5v0zM703.997 427.001c0 -6 -1.16699 -11.667 -3.5 -17s-5.16602 -10 -8.49902 -14c-4 -3.33301 -8.66699 -6.16602 -14 -8.49902s-11 -3.5 -17 -3.5s-11.5 1.16699 -16.5 3.5
s-9.5 5.16602 -13.5 8.49902c-4 4 -7 8.66699 -9 14s-3 11 -3 17s1 11.5 3 16.5s5 9.5 9 13.5s8.5 7 13.5 9s10.5 3 16.5 3s11.667 -1 17 -3s10 -5 14 -9c3.33301 -4 6.16602 -8.5 8.49902 -13.5s3.5 -10.5 3.5 -16.5v0z" />
    <glyph glyph-name="uniE62A" unicode="&#xe62a;" 
d="M512 49l-62.0039 56l-149.5 138.5c-45 42.333 -83.5 83.166 -115.5 122.499c-31.333 38.667 -55.833 76.834 -73.5 114.501s-26.5 76.5 -26.5 116.5c0 33.333 6.16699 64.166 18.5 92.499s28.833 53.166 49.5 74.499c21.333 21.333 46.333 38 75 50s59.334 18 92.001 18
c18.667 0 37 -2 55 -6s35 -10 51 -18c16.667 -8 32.334 -17.5 47.001 -28.5s27.667 -23.167 39 -36.5c11.333 13.333 24.333 25.5 39 36.5s30.334 20.5 47.001 28.5c16 8 33 14 51 18s36.333 6 55 6c32.667 0 63.334 -6 92.001 -18s53.667 -28.667 75 -50
c20.667 -21.333 37.167 -46.166 49.5 -74.499s18.5 -59.166 18.5 -92.499c0 -40 -8.83301 -78.833 -26.5 -116.5s-42.167 -75.834 -73.5 -114.501c-32 -39.333 -70.5 -80.166 -115.5 -122.499l-149.5 -138.5l-62 -56v0z" />
    <glyph glyph-name="uniE62B" unicode="&#xe62b;" 
d="M704 832c-18.667 0 -36.9961 -1.99902 -54.9961 -5.99902s-35 -10 -51 -18c-16.667 -8 -32.334 -17.5 -47.001 -28.5s-27.667 -23.167 -39 -36.5c-11.333 13.333 -24.333 25.5 -39 36.5s-30.334 20.5 -47.001 28.5c-16 7.33301 -33 13.166 -51 17.499
s-36.333 6.5 -55 6.5c-32.667 0 -63.334 -6 -92.001 -18s-53.667 -28.667 -75 -50c-20.667 -21.333 -37.167 -46.166 -49.5 -74.499s-18.5 -59.166 -18.5 -92.499c0 -40 8.83301 -78.833 26.5 -116.5s42.167 -75.834 73.5 -114.501c32 -39.333 70.5 -80.166 115.5 -122.499
l149.5 -138.5l62 -56l62 56l149.5 138.5c45 42.333 83.5 83.166 115.5 122.499c31.333 38.667 55.833 76.834 73.5 114.501s26.5 76.5 26.5 116.5c0 33.333 -6.16699 64.166 -18.5 92.499s-28.833 53.166 -49.5 74.499c-21.333 21.333 -46.333 38 -75 50
s-59.334 18 -92.001 18v0zM516.004 168.001l-3.99609 -4l-4 4l-139 127.5c-41.333 39 -76.666 75.833 -105.999 110.5c-29.333 34 -52 66.667 -68 98s-24 62.333 -24 93c0 21.333 3.66699 41.166 11 59.499s17.666 34.166 30.999 47.499s29.166 23.833 47.499 31.5
s38.166 11.5 59.499 11.5c16.667 0 32.834 -2.5 48.501 -7.5s30.167 -12.167 43.5 -21.5c14 -8.66699 26.167 -19.167 36.5 -31.5s18.166 -25.833 23.499 -40.5h80c5.33301 14.667 13.166 28.167 23.499 40.5s22.5 22.833 36.5 31.5c13.333 9.33301 27.833 16.5 43.5 21.5
s31.834 7.5 48.501 7.5c21.333 0 41.166 -3.83301 59.499 -11.5s34.166 -18.167 47.499 -31.5s23.666 -29.166 30.999 -47.499s11 -38.166 11 -59.499c0 -30.667 -8 -61.667 -24 -93s-38.667 -64 -68 -98c-29.333 -34.667 -64.666 -71.5 -105.999 -110.5l-139 -127.5v0z" />
    <glyph glyph-name="uniE62C" unicode="&#xe62c;" 
d="M853 124l-0.00390625 495.001l-256 256h-341c-12 0 -23.167 -2.33301 -33.5 -7s-19.166 -10.667 -26.499 -18c-8 -8 -14.167 -17.167 -18.5 -27.5s-6.5 -21.5 -6.5 -33.5v-682c0 -12 2.16699 -23.167 6.5 -33.5s10.166 -19.5 17.499 -27.5
c8 -7.33301 17.167 -13.333 27.5 -18s21.5 -7 33.5 -7h512c4.66699 0 9.33398 0.5 14.001 1.5s9 2.16699 13 3.5c4.66699 1.33301 8.83398 3 12.501 5s7.5 4.33301 11.5 7l-190 190c-8 -6 -16.667 -11.167 -26 -15.5s-19 -8.16602 -29 -11.499
c-9.33301 -2.66699 -19.333 -4.83398 -30 -6.50098s-21.334 -2.5 -32.001 -2.5c-29.333 0 -57 5.66699 -83 17s-48.667 26.666 -68 45.999c-19.333 18.667 -34.5 41 -45.5 67s-16.5 53.667 -16.5 83s5.5 57 16.5 83s26.167 48.667 45.5 68s42 34.666 68 45.999
s53.667 17 83 17s57 -5.66699 83 -17s48.667 -26.666 68 -45.999s34.5 -42 45.5 -68s16.5 -53.667 16.5 -83c0 -10.667 -0.666992 -21.167 -2 -31.5s-3.66602 -20.5 -6.99902 -30.5s-7.16602 -19.667 -11.499 -29s-9.16602 -18 -14.499 -26l163 -164v0zM383.996 405.001
c0 -17.333 3.33301 -33.833 10 -49.5s16 -29.167 28 -40.5c11.333 -12 24.833 -21.333 40.5 -28s32.167 -10 49.5 -10s33.833 3.33301 49.5 10s29.167 16 40.5 28c12 11.333 21.333 24.833 28 40.5s10 32.167 10 49.5c0 18 -3.33301 34.667 -10 50s-16 29 -28 41
c-11.333 11.333 -24.833 20.333 -40.5 27s-32.167 10 -49.5 10s-33.833 -3.33301 -49.5 -10s-29.167 -15.667 -40.5 -27c-12 -12 -21.333 -25.667 -28 -41s-10 -32 -10 -50v0z" />
    <glyph glyph-name="uniE62D" unicode="&#xe62d;" 
d="M469 704c14.667 0 28.999 -1.50098 42.999 -4.50098s27.333 -7.16699 40 -12.5s24.834 -11.833 36.501 -19.5s22.167 -16.5 31.5 -26.5l-108 -108h256v256l-87 -87c-14 13.333 -29 25.333 -45 36s-32.667 20 -50 28c-18 7.33301 -36.833 13 -56.5 17s-39.834 6 -60.501 6
c-37.333 0 -72.833 -6.5 -106.5 -19.5s-63.5 -30.833 -89.5 -53.5c-26 -23.333 -47.667 -50.5 -65 -81.5s-28.666 -64.833 -33.999 -101.5h86c5.33301 24.667 14.333 47.334 27 68.001s28.334 38.667 47.001 54c18 15.333 38.667 27.333 62 36s47.666 13 72.999 13v0z
M709.999 313.999c7.33301 10 13.8311 20.167 19.498 30.5s10.834 21.166 15.501 32.499s8.66699 22.833 12 34.5s6 23.834 8 36.501h-87c-4.66699 -24 -13.334 -46.5 -26.001 -67.5s-28.334 -39.167 -47.001 -54.5s-39.5 -27.333 -62.5 -36s-47.5 -13 -73.5 -13
c-14.667 0 -29 1.5 -43 4.5s-27.333 7.16699 -40 12.5s-24.667 11.833 -36 19.5s-21.666 16.5 -30.999 26.5l108 108h-256v-256l87 87c13.333 -13.333 28 -25.333 44 -36s33 -20 51 -28c18 -7.33301 36.667 -13 56 -17s39.333 -6 60 -6c16.667 0 33 1.33301 49 4
s31.333 6.33398 46 11.001c14.667 5.33301 28.834 11.666 42.501 18.999s26.834 15.333 39.501 24l207 -207l64 64l-207 207v0z" />
    <glyph glyph-name="uniE62E" unicode="&#xe62e;" 
d="M384 661h-85v-85h85v85v0zM384 491h-85v-86h85v86v0zM384 832c-12 0 -23.168 -2.16797 -33.501 -6.50098s-19.166 -10.5 -26.499 -18.5c-8 -8 -14.167 -17.167 -18.5 -27.5s-6.5 -21.166 -6.5 -32.499h85v85v0zM554.999 319.999h-86v-85h86v85v0zM810.999 831.999
l-0.000976562 -84.999h85c0 11.333 -2.16699 22.166 -6.5 32.499s-10.5 19.5 -18.5 27.5s-17.167 14.167 -27.5 18.5s-21.166 6.5 -32.499 6.5v0zM554.998 832h-86v-85h86v85v0zM383.998 235l0.000976562 84.999h-85c0 -12 2.16699 -23.167 6.5 -33.5
s10.5 -19.166 18.5 -26.499c7.33301 -8 16.166 -14.167 26.499 -18.5s21.5 -6.5 33.5 -6.5v0zM810.999 404.999h85v86h-85v-86v0zM810.999 575.999h85v85h-85v-85v0zM810.999 234.999c11.333 0 22.167 2.16797 32.5 6.50098s19.5 10.5 27.5 18.5
c8 7.33301 14.167 16.166 18.5 26.499s6.5 21.5 6.5 33.5h-85v-85v0zM213 661l-84.999 -0.000976562v-512c0 -11.333 2.16699 -22.166 6.5 -32.499s10.5 -19.5 18.5 -27.5s17.167 -14.167 27.5 -18.5s21.166 -6.5 32.499 -6.5h512v85h-512v512v0zM640.001 746.999h85v85h-85
v-85v0zM640.001 234.999h85v85h-85v-85v0z" />
    <glyph glyph-name="uniE62F" unicode="&#xe62f;" 
d="M128 405h85v86h-85v-86v0zM128 235h85v85h-85v-85v0zM213 64l0.000976562 84.999h-85c0 -11.333 2.16699 -22.166 6.5 -32.499s10.5 -19.5 18.5 -27.5s17.167 -14.167 27.5 -18.5s21.166 -6.5 32.499 -6.5v0zM128.001 575.999h85v85h-85v-85v0zM640.001 63.999h85v85h-85
v-85v0zM811.001 831.999h-427c-12 0 -23.167 -2.16699 -33.5 -6.5s-19.166 -10.5 -26.499 -18.5c-8 -8 -14.167 -17.167 -18.5 -27.5s-6.5 -21.166 -6.5 -32.499v-427c0 -12 2.16699 -23.167 6.5 -33.5s10.5 -19.166 18.5 -26.499c7.33301 -8 16.166 -14.167 26.499 -18.5
s21.5 -6.5 33.5 -6.5h427c11.333 0 22.166 2.16699 32.499 6.5s19.5 10.5 27.5 18.5c8 7.33301 14.167 16.166 18.5 26.499s6.5 21.5 6.5 33.5v427c0 11.333 -2.16699 22.166 -6.5 32.499s-10.5 19.5 -18.5 27.5s-17.167 14.167 -27.5 18.5s-21.166 6.5 -32.499 6.5v0z
M811.001 319.999h-427v427h427v-427v0zM469.001 63.999h86v85h-86v-85v0zM299.001 63.999h85v85h-85v-85v0z" />
    <glyph glyph-name="uniE630" unicode="&#xe630;" 
d="M811 576h-171v256h-256v-256h-171l299 -299l299 299v0zM213 192v-85h598v85h-598v0z" />
    <glyph glyph-name="uniE631" unicode="&#xe631;" 
d="M512 223l264 -159l-70 300l233 202l-307 26l-120 283l-120 -283l-307 -26l233 -202l-70 -300z" />
    <glyph glyph-name="uniE632" unicode="&#xe632;" 
d="M512 875c-58.667 0 -114 -11.167 -166 -33.5s-97.333 -52.833 -136 -91.5s-69.167 -84 -91.5 -136s-33.5 -107.333 -33.5 -166s11.167 -114 33.5 -166s52.833 -97.333 91.5 -136s84 -69.167 136 -91.5s107.333 -33.5 166 -33.5s114 11.167 166 33.5
s97.333 52.833 136 91.5s69.167 84 91.5 136s33.5 107.333 33.5 166s-11.167 114 -33.5 166s-52.833 97.333 -91.5 136s-84 69.167 -136 91.5s-107.333 33.5 -166 33.5v0zM341 213c-14.667 0 -28.5 2.83301 -41.5 8.5s-24.167 13.5 -33.5 23.5
c-10 9.33301 -17.667 20.5 -23 33.5s-8 26.833 -8 41.5s2.66699 28.5 8 41.5s13 24.167 23 33.5c9.33301 10 20.5 17.833 33.5 23.5s26.833 8.5 41.5 8.5s28.5 -2.83301 41.5 -8.5s24.5 -13.5 34.5 -23.5c9.33301 -9.33301 16.833 -20.5 22.5 -33.5s8.5 -26.833 8.5 -41.5
s-2.83301 -28.5 -8.5 -41.5s-13.167 -24.167 -22.5 -33.5c-10 -10 -21.5 -17.833 -34.5 -23.5s-26.833 -8.5 -41.5 -8.5v0zM405 619c0 14.667 2.83301 28.5 8.5 41.5s13.5 24.167 23.5 33.5c9.33301 10 20.5 17.667 33.5 23s26.833 8 41.5 8s28.5 -2.66699 41.5 -8
s24.167 -13 33.5 -23c10 -9.33301 17.833 -20.5 23.5 -33.5s8.5 -26.833 8.5 -41.5s-2.83301 -28.5 -8.5 -41.5s-13.5 -24.5 -23.5 -34.5c-9.33301 -9.33301 -20.5 -16.833 -33.5 -22.5s-26.833 -8.5 -41.5 -8.5s-28.5 2.83301 -41.5 8.5s-24.167 13.167 -33.5 22.5
c-10 10 -17.833 21.5 -23.5 34.5s-8.5 26.833 -8.5 41.5v0zM683 213c-14.667 0 -28.5 2.83301 -41.5 8.5s-24.5 13.5 -34.5 23.5c-9.33301 9.33301 -16.833 20.5 -22.5 33.5s-8.5 26.833 -8.5 41.5s2.83301 28.5 8.5 41.5s13.167 24.167 22.5 33.5
c10 10 21.5 17.833 34.5 23.5s26.833 8.5 41.5 8.5s28.5 -2.83301 41.5 -8.5s24.167 -13.5 33.5 -23.5c10 -9.33301 17.667 -20.5 23 -33.5s8 -26.833 8 -41.5s-2.66699 -28.5 -8 -41.5s-13 -24.167 -23 -33.5c-9.33301 -10 -20.5 -17.833 -33.5 -23.5
s-26.833 -8.5 -41.5 -8.5v0z" />
    <glyph glyph-name="uniE633" unicode="&#xe633;" 
d="M512 875c-58.667 0 -114 -11.167 -166 -33.5s-97.333 -52.833 -136 -91.5s-69.167 -84 -91.5 -136s-33.5 -107.333 -33.5 -166s11.167 -114 33.5 -166s52.833 -97.333 91.5 -136s84 -69.167 136 -91.5s107.333 -33.5 166 -33.5s114 11.167 166 33.5
s97.333 52.833 136 91.5s69.167 84 91.5 136s33.5 107.333 33.5 166s-11.167 114 -33.5 166s-52.833 97.333 -91.5 136s-84 69.167 -136 91.5s-107.333 33.5 -166 33.5v0zM555 149h-86v86h86v-86v0zM643 480l-38.001 -38.9971c-8 -8 -15 -15.833 -21 -23.5
s-11.333 -15.834 -16 -24.501c-4 -9.33301 -7.16699 -19.833 -9.5 -31.5s-3.5 -25.5 -3.5 -41.5h-86v21c0 12 1.16699 23.5 3.5 34.5s5.83301 21.833 10.5 32.5c4 10 9.16699 19.5 15.5 28.5s13.166 17.5 20.499 25.5l53 54c4 4 7.5 8.16699 10.5 12.5
s5.83301 9.16602 8.5 14.499c2 5.33301 3.5 10.666 4.5 15.999s1.5 11 1.5 17c0 12 -2.16699 23.167 -6.5 33.5s-10.5 19.166 -18.5 26.499c-7.33301 8 -16.166 14.167 -26.499 18.5s-21.5 6.5 -33.5 6.5s-23.167 -2.16699 -33.5 -6.5s-19.166 -10.5 -26.499 -18.5
c-8 -7.33301 -14.167 -16.166 -18.5 -26.499s-6.5 -21.5 -6.5 -33.5h-86c0 23.333 4.5 45.5 13.5 66.5s21.167 39.167 36.5 54.5s33.5 27.5 54.5 36.5s43.167 13.5 66.5 13.5s45.5 -4.5 66.5 -13.5s39.167 -21.167 54.5 -36.5s27.5 -33.5 36.5 -54.5
s13.5 -43.167 13.5 -66.5c0 -9.33301 -1 -18.5 -3 -27.5s-4.66699 -17.5 -8 -25.5s-7.5 -15.667 -12.5 -23s-10.5 -14 -16.5 -20v0z" />
    <glyph glyph-name="uniE634" unicode="&#xe634;" 
d="M622 619l-110 -111l-110 111l-61 -61l111 -110l-111 -110l61 -61l110 111l110 -111l61 61l-111 110l111 110l-61 61v0zM512 875c-58.667 0 -114 -11.167 -166 -33.5s-97.333 -52.833 -136 -91.5s-69.167 -84 -91.5 -136s-33.5 -107.333 -33.5 -166s11.167 -114 33.5 -166
s52.833 -97.333 91.5 -136s84 -69.167 136 -91.5s107.333 -33.5 166 -33.5s114 11.167 166 33.5s97.333 52.833 136 91.5s69.167 84 91.5 136s33.5 107.333 33.5 166s-11.167 114 -33.5 166s-52.833 97.333 -91.5 136s-84 69.167 -136 91.5s-107.333 33.5 -166 33.5v0z
M512 107c-47.333 0 -91.666 8.83301 -132.999 26.5s-77.333 42.167 -108 73.5c-31.333 30.667 -55.833 66.667 -73.5 108s-26.5 85.666 -26.5 132.999s8.83301 91.666 26.5 132.999s42.167 77.333 73.5 108c30.667 31.333 66.667 55.833 108 73.5s85.666 26.5 132.999 26.5
s91.666 -8.83301 132.999 -26.5s77.333 -42.167 108 -73.5c31.333 -30.667 55.833 -66.667 73.5 -108s26.5 -85.666 26.5 -132.999s-8.83301 -91.666 -26.5 -132.999s-42.167 -77.333 -73.5 -108c-30.667 -31.333 -66.667 -55.833 -108 -73.5s-85.666 -26.5 -132.999 -26.5
v0z" />
    <glyph glyph-name="uniE635" unicode="&#xe635;" 
d="M554 832c-52.667 0 -102.331 -9.99902 -148.998 -29.999s-87.334 -47.333 -122.001 -82c-34.667 -35.333 -62 -76.166 -82 -122.499s-30 -96.166 -30 -149.499h-128l166 -166l3 -6l172 172h-128c0 41.333 7.83301 80.166 23.5 116.499s36.834 67.833 63.501 94.5
c27.333 27.333 59.166 48.833 95.499 64.5s75.166 23.5 116.499 23.5s80 -7.83301 116 -23.5s67.667 -37.167 95 -64.5c26.667 -26.667 47.834 -58.167 63.501 -94.5s23.5 -75.166 23.5 -116.499s-7.83301 -80.166 -23.5 -116.499s-36.834 -67.833 -63.501 -94.5
c-27.333 -27.333 -59 -48.833 -95 -64.5s-74.667 -23.5 -116 -23.5c-20.667 0 -40.834 2.16699 -60.501 6.5s-38.5 10.166 -56.5 17.499c-17.333 7.33301 -34 16.5 -50 27.5s-30.667 23.167 -44 36.5l-61 -60c17.333 -17.333 36.333 -33 57 -47s42.334 -26 65.001 -36
c23.333 -9.33301 47.5 -16.666 72.5 -21.999s50.5 -8 76.5 -8c53.333 0 103.333 10 150 30s87.334 47.333 122.001 82c34.667 35.333 62.167 76.166 82.5 122.499s30.5 96.166 30.5 149.499s-10.167 103.166 -30.5 149.499s-47.833 87.166 -82.5 122.499
c-34.667 34.667 -75.334 62 -122.001 82s-96.667 30 -150 30v0zM512.003 619.001v-214l183 -108l30 52l-149 88v182h-64v0z" />
    <glyph glyph-name="uniE636" unicode="&#xe636;" 
d="M427 107v256h170v-256h214v341h128l-427 384l-427 -384h128v-341h214z" />
    <glyph glyph-name="uniE637" unicode="&#xe637;" 
d="M768 619h-43v85c0 29.333 -5.5 57 -16.5 83s-26.167 48.667 -45.5 68s-42 34.5 -68 45.5s-53.667 16.5 -83 16.5s-57 -5.5 -83 -16.5s-48.667 -26.167 -68 -45.5s-34.5 -42 -45.5 -68s-16.5 -53.667 -16.5 -83v-85h-43c-12 0 -23.167 -2.33301 -33.5 -7
s-19.166 -10.667 -26.499 -18c-8 -8 -14.167 -17.167 -18.5 -27.5s-6.5 -21.5 -6.5 -33.5v-426c0 -12 2.16699 -23.167 6.5 -33.5s10.5 -19.5 18.5 -27.5c7.33301 -7.33301 16.166 -13.333 26.499 -18s21.5 -7 33.5 -7h512c12 0 23.167 2.33301 33.5 7
s19.166 10.667 26.499 18c8 8 14.167 17.167 18.5 27.5s6.5 21.5 6.5 33.5v426c0 12 -2.16699 23.167 -6.5 33.5s-10.5 19.5 -18.5 27.5c-7.33301 7.33301 -16.166 13.333 -26.499 18s-21.5 7 -33.5 7v0zM512 235c-12 0 -23.167 2.16699 -33.5 6.5
s-19.166 10.5 -26.499 18.5c-8 7.33301 -14.167 16.166 -18.5 26.499s-6.5 21.5 -6.5 33.5s2.16699 23.167 6.5 33.5s10.5 19.166 18.5 26.499c7.33301 8 16.166 14.167 26.499 18.5s21.5 6.5 33.5 6.5s23.167 -2.16699 33.5 -6.5s19.166 -10.5 26.499 -18.5
c8 -7.33301 14.167 -16.166 18.5 -26.499s6.5 -21.5 6.5 -33.5s-2.16699 -23.167 -6.5 -33.5s-10.5 -19.166 -18.5 -26.499c-7.33301 -8 -16.166 -14.167 -26.499 -18.5s-21.5 -6.5 -33.5 -6.5v0zM644 619h-263.998v85c0 18 3.5 35.167 10.5 51.5s16.5 30.166 28.5 41.499
c11.333 12 25.166 21.5 41.499 28.5s33.5 10.5 51.5 10.5s35.167 -3.5 51.5 -10.5s30.166 -16.5 41.499 -28.5c12 -11.333 21.5 -25.166 28.5 -41.499s10.5 -33.5 10.5 -51.5v-85v0z" />
    <glyph glyph-name="uniE638" unicode="&#xe638;" 
d="M512 875c-58.667 0 -114 -11.167 -166 -33.5s-97.333 -52.833 -136 -91.5s-69.167 -84 -91.5 -136s-33.5 -107.333 -33.5 -166s11.167 -114 33.5 -166s52.833 -97.333 91.5 -136s84 -69.167 136 -91.5s107.333 -33.5 166 -33.5s114 11.167 166 33.5
s97.333 52.833 136 91.5s69.167 84 91.5 136s33.5 107.333 33.5 166s-11.167 114 -33.5 166s-52.833 97.333 -91.5 136s-84 69.167 -136 91.5s-107.333 33.5 -166 33.5v0zM555 235h-86v256h86v-256v0zM555 576h-86v85h86v-85v0z" />
    <glyph glyph-name="uniE639" unicode="&#xe639;" 
d="M469 235h86v256h-86v-256v0zM512 875c-58.667 0 -114 -11.167 -166 -33.5s-97.333 -52.833 -136 -91.5s-69.167 -84 -91.5 -136s-33.5 -107.333 -33.5 -166s11.167 -114 33.5 -166s52.833 -97.333 91.5 -136s84 -69.167 136 -91.5s107.333 -33.5 166 -33.5
s114 11.167 166 33.5s97.333 52.833 136 91.5s69.167 84 91.5 136s33.5 107.333 33.5 166s-11.167 114 -33.5 166s-52.833 97.333 -91.5 136s-84 69.167 -136 91.5s-107.333 33.5 -166 33.5v0zM512 107c-47.333 0 -91.666 8.83301 -132.999 26.5s-77.333 42.167 -108 73.5
c-31.333 30.667 -55.833 66.667 -73.5 108s-26.5 85.666 -26.5 132.999s8.83301 91.666 26.5 132.999s42.167 77.333 73.5 108c30.667 31.333 66.667 55.833 108 73.5s85.666 26.5 132.999 26.5s91.666 -8.83301 132.999 -26.5s77.333 -42.167 108 -73.5
c31.333 -30.667 55.833 -66.667 73.5 -108s26.5 -85.666 26.5 -132.999s-8.83301 -91.666 -26.5 -132.999s-42.167 -77.333 -73.5 -108c-30.667 -31.333 -66.667 -55.833 -108 -73.5s-85.666 -26.5 -132.999 -26.5v0zM469 576h86v85h-86v-85v0z" />
    <glyph glyph-name="uniE63A" unicode="&#xe63a;" 
d="M896 832l-768 -0.000976562c-12 0 -23.167 -2.33301 -33.5 -7s-19.166 -10.667 -26.499 -18c-8 -8 -14.167 -17.167 -18.5 -27.5s-6.5 -21.5 -6.5 -33.5v-170h85v171h768v-599h-768v172h-85v-171c0 -12 2.16699 -23.167 6.5 -33.5s10.5 -19.166 18.5 -26.499
c7.33301 -7.33301 16.166 -13.333 26.499 -18s21.5 -7 33.5 -7h768c12 0 23.167 2.33301 33.5 7s19.166 10.667 26.499 18c8 8 14.167 17 18.5 27s6.5 21 6.5 33v597c0 12 -2.16699 23.167 -6.5 33.5s-10.5 19.5 -18.5 27.5c-7.33301 7.33301 -16.166 13.333 -26.499 18
s-21.5 7 -33.5 7v0zM469 276.999l171 171l-171 171v-128h-426v-86h426v-128v0z" />
    <glyph glyph-name="uniE63B" unicode="&#xe63b;" 
d="M753 622l-241 241l-241 -241c-33.333 -33.333 -58.333 -71 -75 -113s-25 -85 -25 -129c0 -43.333 8.33301 -86 25 -128s41.667 -79.667 75 -113c16.667 -16.667 34.5 -31.334 53.5 -44.001s38.833 -23 59.5 -31c20 -8.66699 40.833 -15 62.5 -19s43.5 -6 65.5 -6
s43.833 2 65.5 6s42.5 10.333 62.5 19c20.667 8 40.5 18.333 59.5 31s36.833 27.334 53.5 44.001c33.333 33.333 58.333 71 75 113s25 84.667 25 128c0 44 -8.33301 87 -25 129s-41.667 79.667 -75 113v0zM512 124c-17.333 0 -34.168 1.66699 -50.501 5
s-32.166 8.33301 -47.499 15c-15.333 6 -30 13.667 -44 23s-27 20 -39 32c-12 12.667 -22.667 25.834 -32 39.501s-17.333 28.167 -24 43.5c-6 15.333 -10.667 31.333 -14 48s-5 33.334 -5 50.001c0 17.333 1.66699 34.166 5 50.499s8 32.166 14 47.499
c6.66699 15.333 14.667 30 24 44s20 27 32 39l181 181v-618v0z" />
    <glyph glyph-name="uniE63C" unicode="&#xe63c;" 
d="M752 711c-3.33301 5.33301 -7.66602 10.168 -12.999 14.501s-10.666 8.16602 -15.999 11.499c-6 3.33301 -12.5 5.83301 -19.5 7.5s-13.833 2.5 -20.5 2.5l-470 -1c-11.333 0 -22.166 -2.16699 -32.499 -6.5s-19.5 -10.5 -27.5 -18.5
c-8 -7.33301 -14.167 -16.166 -18.5 -26.499s-6.5 -21.5 -6.5 -33.5v-426c0 -12 2.16699 -23.167 6.5 -33.5s10.5 -19.166 18.5 -26.499c8 -8 17.167 -14.167 27.5 -18.5s21.166 -6.5 32.499 -6.5l470 -1c6.66699 0 13.5 0.833008 20.5 2.5s13.5 4.16699 19.5 7.5
c5.33301 3.33301 10.666 7.16602 15.999 11.499s9.66602 9.16602 12.999 14.499l187 263l-187 263v0z" />
    <glyph glyph-name="uniE63D" unicode="&#xe63d;" 
d="M752 711c-3.33301 5.33301 -7.66602 10.168 -12.999 14.501s-10.666 8.16602 -15.999 11.499c-6 3.33301 -12.5 5.83301 -19.5 7.5s-13.833 2.5 -20.5 2.5l-470 -1c-11.333 0 -22.166 -2.16699 -32.499 -6.5s-19.5 -10.5 -27.5 -18.5
c-8 -7.33301 -14.167 -16.166 -18.5 -26.499s-6.5 -21.5 -6.5 -33.5v-426c0 -12 2.16699 -23.167 6.5 -33.5s10.5 -19.166 18.5 -26.499c8 -8 17.167 -14.167 27.5 -18.5s21.166 -6.5 32.499 -6.5l470 -1c6.66699 0 13.5 0.833008 20.5 2.5s13.5 4.16699 19.5 7.5
c5.33301 3.33301 10.666 7.16602 15.999 11.499s9.66602 9.16602 12.999 14.499l187 263l-187 263v0zM683 235.002h-470v426h470l151 -213l-151 -213v0z" />
    <glyph glyph-name="uniE63E" unicode="&#xe63e;" 
d="M512 875c-59.333 0 -114.833 -11.167 -166.5 -33.5s-96.834 -52.833 -135.501 -91.5s-69.167 -84 -91.5 -136s-33.5 -107.333 -33.5 -166s11.167 -114 33.5 -166s52.833 -97.333 91.5 -136s83.834 -69.167 135.501 -91.5s107.167 -33.5 166.5 -33.5
c58.667 0 114 11.167 166 33.5s97.333 52.833 136 91.5s69.167 84 91.5 136s33.5 107.333 33.5 166s-11.167 114 -33.5 166s-52.833 97.333 -91.5 136s-84 69.167 -136 91.5s-107.333 33.5 -166 33.5v0zM807 619l-125.998 0.000976562c-3.33301 13.333 -7 26.5 -11 39.5
s-8.66699 25.833 -14 38.5c-4.66699 12.667 -9.83398 25.167 -15.501 37.5l-17.5 36.5c19.333 -7.33301 38 -16 56 -26s34.667 -21.333 50 -34s29.666 -26.834 42.999 -42.501s25 -32.167 35 -49.5v0zM512.002 788.001c8.66699 -12.667 17 -25.834 25 -39.501
s15.333 -27.5 22 -41.5c7.33301 -14 13.833 -28.333 19.5 -43s10.5 -29.667 14.5 -45h-162c4 15.333 8.83301 30.333 14.5 45s12.167 29 19.5 43c6.66699 14 14 27.833 22 41.5s16.333 26.834 25 39.501v0zM182.002 363.001c-2 6.66699 -3.66699 13.502 -5 20.502
s-2.33301 14.167 -3 21.5c-1.33301 6.66699 -2.16602 13.667 -2.49902 21s-0.5 14.666 -0.5 21.999s0.166992 14.666 0.5 21.999s1.16602 14.333 2.49902 21c0.666992 7.33301 1.66699 14.5 3 21.5s3 13.833 5 20.5h144c-1.33301 -6.66699 -2.33301 -13.5 -3 -20.5
s-1 -14.167 -1 -21.5c-0.666992 -7.33301 -1.16699 -14.5 -1.5 -21.5s-0.5 -14.167 -0.5 -21.5s0.166992 -14.5 0.5 -21.5s0.833008 -14.167 1.5 -21.5c0 -7.33301 0.5 -14.5 1.5 -21.5s1.83301 -13.833 2.5 -20.5h-144v0zM217.002 277.003l125 -0.000976562l12 -39.5
c4 -13 8.33301 -25.833 13 -38.5l16.5 -37.5l17.5 -36.5c-19.333 6.66699 -38 15 -56 25s-34.667 21.667 -50 35c-16 12.667 -30.5 26.834 -43.5 42.501s-24.5 32.167 -34.5 49.5v0zM342.002 619.002l-125 -0.000976562c10 17.333 21.5 33.833 34.5 49.5
s27.5 29.834 43.5 42.501c15.333 13.333 32 25 50 35s36.667 18.333 56 25l-17.5 -36.5l-16.5 -37.5c-4.66699 -12.667 -9 -25.5 -13 -38.5l-12 -39.5v0zM512.002 108.001c-8.66699 12.667 -17 25.834 -25 39.501s-15.333 27.5 -22 41.5s-13 28.333 -19 43
s-11 29.667 -15 45h162c-4 -15.333 -9 -30.333 -15 -45s-12.333 -29 -19 -43s-14 -27.833 -22 -41.5s-16.333 -26.834 -25 -39.501v0zM612.002 363.001h-200c-0.666992 6.66699 -1.5 13.5 -2.5 20.5s-1.83301 14.167 -2.5 21.5s-1.16699 14.5 -1.5 21.5
s-0.5 14.167 -0.5 21.5s0.166992 14.5 0.5 21.5s0.833008 14.167 1.5 21.5s1.5 14.5 2.5 21.5s1.83301 13.833 2.5 20.5h200c0.666992 -6.66699 1.5 -13.5 2.5 -20.5s1.83301 -14.167 2.5 -21.5s1.16699 -14.5 1.5 -21.5s0.5 -14.167 0.5 -21.5s-0.166992 -14.5 -0.5 -21.5
s-0.833008 -14.167 -1.5 -21.5s-1.5 -14.5 -2.5 -21.5s-1.83301 -13.833 -2.5 -20.5v0zM623.002 125.001l17.499 36.501l16.5 37.5c4.66699 12.667 9 25.5 13 38.5l12 39.5h125c-10 -17.333 -21.667 -33.833 -35 -49.5s-27.666 -29.834 -42.999 -42.501s-32 -24 -50 -34
s-36.667 -18.667 -56 -26v0zM698.001 363.002l2 20.498l2 21.5c0.666992 7.33301 1.16699 14.5 1.5 21.5s0.5 14.167 0.5 21.5s-0.166992 14.5 -0.5 21.5s-0.833008 14.167 -1.5 21.5c0 7.33301 -0.5 14.5 -1.5 21.5s-1.83301 13.833 -2.5 20.5h144
c2 -6.66699 3.66699 -13.5 5 -20.5s2.33301 -14.167 3 -21.5c1.33301 -6.66699 2.16602 -13.667 2.49902 -21s0.5 -14.666 0.5 -21.999s-0.166992 -14.666 -0.5 -21.999s-1.16602 -14.333 -2.49902 -21c-0.666992 -7.33301 -1.66699 -14.5 -3 -21.5s-3 -13.833 -5 -20.5
h-144v0z" />
    <glyph glyph-name="uniE63F" unicode="&#xe63f;" 
d="M811 149l-597.999 -0.000976562v598h299v85h-299c-11.333 0 -22.166 -2.16699 -32.499 -6.5s-19.5 -10.5 -27.5 -18.5s-14.167 -17.167 -18.5 -27.5s-6.5 -21.166 -6.5 -32.499v-598c0 -11.333 2.16699 -22.166 6.5 -32.499s10.5 -19.5 18.5 -27.5
s17.167 -14.167 27.5 -18.5s21.166 -6.5 32.499 -6.5h598c11.333 0 22.166 2.16699 32.499 6.5s19.5 10.5 27.5 18.5s14.167 17.167 18.5 27.5s6.5 21.166 6.5 32.499v299h-85v-299v0zM597.001 831.999v-85h153l-419 -420l60 -60l420 419v-153h85v299h-299v0z" />
    <glyph glyph-name="uniE640" unicode="&#xe640;" 
d="M128 405h85v86h-85v-86v0zM128 235h85v85h-85v-85v0zM128 576h85v85h-85v-85v0zM299 405h597v86h-597v-86v0zM299 235h597v85h-597v-85v0zM299 661v-85h597v85h-597v0z" />
    <glyph glyph-name="uniE641" unicode="&#xe641;" 
d="M768 619h-43v85c0 29.333 -5.5 57 -16.5 83s-26.167 48.667 -45.5 68s-42 34.5 -68 45.5s-53.667 16.5 -83 16.5s-57 -5.5 -83 -16.5s-48.667 -26.167 -68 -45.5s-34.5 -42 -45.5 -68s-16.5 -53.667 -16.5 -83v-85h-43c-12 0 -23.167 -2.33301 -33.5 -7
s-19.166 -10.667 -26.499 -18c-8 -8 -14.167 -17.167 -18.5 -27.5s-6.5 -21.5 -6.5 -33.5v-426c0 -12 2.16699 -23.167 6.5 -33.5s10.5 -19.5 18.5 -27.5c7.33301 -7.33301 16.166 -13.333 26.499 -18s21.5 -7 33.5 -7h512c12 0 23.167 2.33301 33.5 7
s19.166 10.667 26.499 18c8 8 14.167 17.167 18.5 27.5s6.5 21.5 6.5 33.5v426c0 12 -2.16699 23.167 -6.5 33.5s-10.5 19.5 -18.5 27.5c-7.33301 7.33301 -16.166 13.333 -26.499 18s-21.5 7 -33.5 7v0zM512 235c-12 0 -23.167 2.16699 -33.5 6.5
s-19.166 10.5 -26.499 18.5c-8 7.33301 -14.167 16.166 -18.5 26.499s-6.5 21.5 -6.5 33.5s2.16699 23.167 6.5 33.5s10.5 19.166 18.5 26.499c7.33301 8 16.166 14.167 26.499 18.5s21.5 6.5 33.5 6.5s23.167 -2.16699 33.5 -6.5s19.166 -10.5 26.499 -18.5
c8 -7.33301 14.167 -16.166 18.5 -26.499s6.5 -21.5 6.5 -33.5s-2.16699 -23.167 -6.5 -33.5s-10.5 -19.166 -18.5 -26.499c-7.33301 -8 -16.166 -14.167 -26.499 -18.5s-21.5 -6.5 -33.5 -6.5v0zM644 619h-263.998v85c0 18 3.5 35.167 10.5 51.5s16.5 30.166 28.5 41.499
c11.333 12 25.166 21.5 41.499 28.5s33.5 10.5 51.5 10.5s35.167 -3.5 51.5 -10.5s30.166 -16.5 41.499 -28.5c12 -11.333 21.5 -25.166 28.5 -41.499s10.5 -33.5 10.5 -51.5v-85v0z" />
    <glyph glyph-name="uniE642" unicode="&#xe642;" 
d="M512 235c12 0 23.167 2.16699 33.5 6.5s19.166 10.5 26.499 18.5c8 7.33301 14.167 16.166 18.5 26.499s6.5 21.5 6.5 33.5s-2.16699 23.167 -6.5 33.5s-10.5 19.166 -18.5 26.499c-7.33301 8 -16.166 14.167 -26.499 18.5s-21.5 6.5 -33.5 6.5
s-23.167 -2.16699 -33.5 -6.5s-19.166 -10.5 -26.499 -18.5c-8 -7.33301 -14.167 -16.166 -18.5 -26.499s-6.5 -21.5 -6.5 -33.5s2.16699 -23.167 6.5 -33.5s10.5 -19.166 18.5 -26.499c7.33301 -8 16.166 -14.167 26.499 -18.5s21.5 -6.5 33.5 -6.5v0zM768 619h-42.998v85
c0 29.333 -5.5 57 -16.5 83s-26.167 48.667 -45.5 68s-42 34.5 -68 45.5s-53.667 16.5 -83 16.5s-57 -5.5 -83 -16.5s-48.667 -26.167 -68 -45.5s-34.5 -42 -45.5 -68s-16.5 -53.667 -16.5 -83h81c0 18 3.5 35.167 10.5 51.5s16.5 30.166 28.5 41.499
c11.333 12 25.166 21.5 41.499 28.5s33.5 10.5 51.5 10.5s35.167 -3.5 51.5 -10.5s30.166 -16.5 41.499 -28.5c12 -11.333 21.5 -25.166 28.5 -41.499s10.5 -33.5 10.5 -51.5v-85h-388c-12 0 -23.167 -2.33301 -33.5 -7s-19.166 -10.667 -26.499 -18
c-8 -8 -14.167 -17.167 -18.5 -27.5s-6.5 -21.5 -6.5 -33.5v-426c0 -12 2.16699 -23.167 6.5 -33.5s10.5 -19.5 18.5 -27.5c7.33301 -7.33301 16.166 -13.333 26.499 -18s21.5 -7 33.5 -7h512c12 0 23.167 2.33301 33.5 7s19.166 10.667 26.499 18
c8 8 14.167 17.167 18.5 27.5s6.5 21.5 6.5 33.5v426c0 12 -2.16699 23.167 -6.5 33.5s-10.5 19.5 -18.5 27.5c-7.33301 7.33301 -16.166 13.333 -26.499 18s-21.5 7 -33.5 7v0zM768.002 107h-512v426h512v-426v0z" />
    <glyph glyph-name="uniE643" unicode="&#xe643;" 
d="M768 619h-43v85c0 29.333 -5.5 57 -16.5 83s-26.167 48.667 -45.5 68s-42 34.5 -68 45.5s-53.667 16.5 -83 16.5s-57 -5.5 -83 -16.5s-48.667 -26.167 -68 -45.5s-34.5 -42 -45.5 -68s-16.5 -53.667 -16.5 -83v-85h-43c-12 0 -23.167 -2.33301 -33.5 -7
s-19.166 -10.667 -26.499 -18c-8 -8 -14.167 -17.167 -18.5 -27.5s-6.5 -21.5 -6.5 -33.5v-426c0 -12 2.16699 -23.167 6.5 -33.5s10.5 -19.5 18.5 -27.5c7.33301 -7.33301 16.166 -13.333 26.499 -18s21.5 -7 33.5 -7h512c12 0 23.167 2.33301 33.5 7
s19.166 10.667 26.499 18c8 8 14.167 17.167 18.5 27.5s6.5 21.5 6.5 33.5v426c0 12 -2.16699 23.167 -6.5 33.5s-10.5 19.5 -18.5 27.5c-7.33301 7.33301 -16.166 13.333 -26.499 18s-21.5 7 -33.5 7v0zM512 836c18 0 35.1689 -3.5 51.502 -10.5s30.166 -16.5 41.499 -28.5
c12 -11.333 21.5 -25.166 28.5 -41.499s10.5 -33.5 10.5 -51.5v-85h-260v85h-4c0 18 3.5 35.167 10.5 51.5s16.5 30.166 28.5 41.499c11.333 12 25.166 21.5 41.499 28.5s33.5 10.5 51.5 10.5v0zM768.002 107h-512v426h512v-426v0zM512.002 235
c12 0 23.167 2.16699 33.5 6.5s19.166 10.5 26.499 18.5c8 7.33301 14.167 16.166 18.5 26.499s6.5 21.5 6.5 33.5s-2.16699 23.167 -6.5 33.5s-10.5 19.166 -18.5 26.499c-7.33301 8 -16.166 14.167 -26.499 18.5s-21.5 6.5 -33.5 6.5s-23.167 -2.16699 -33.5 -6.5
s-19.166 -10.5 -26.499 -18.5c-8 -7.33301 -14.167 -16.166 -18.5 -26.499s-6.5 -21.5 -6.5 -33.5s2.16699 -23.167 6.5 -33.5s10.5 -19.166 18.5 -26.499c7.33301 -8 16.166 -14.167 26.499 -18.5s21.5 -6.5 33.5 -6.5v0z" />
    <glyph glyph-name="uniE644" unicode="&#xe644;" 
d="M913 466l-382.997 383.999c-4 3.33301 -8.33301 6.66602 -13 9.99902s-9.33398 6 -14.001 8c-5.33301 2 -10.833 3.66699 -16.5 5s-11.5 2 -17.5 2h-298c-12 0 -23.167 -2.33301 -33.5 -7s-19.5 -10.667 -27.5 -18c-7.33301 -8 -13.333 -17.167 -18 -27.5
s-7 -21.5 -7 -33.5v-298c0 -6 0.666992 -11.833 2 -17.5s3 -11.167 5 -16.5c2 -4.66699 4.66699 -9.33398 8 -14.001s7 -9 11 -13l384 -384c3.33301 -3.33301 7.33301 -6.66602 12 -9.99902s9.66699 -6 15 -8c4.66699 -2 9.83398 -3.66699 15.501 -5s11.5 -2 17.5 -2
s11.667 0.666992 17 2s10.666 3 15.999 5s10.166 4.66699 14.499 8l12.5 10l299 299c3.33301 4 6.66602 8.33301 9.99902 13s6 9.33398 8 14.001c2 5.33301 3.66699 10.833 5 16.5s2 11.167 2 16.5c0 6 -0.666992 11.833 -2 17.5s-3 11.167 -5 16.5
c-2 4.66699 -4.66699 9.33398 -8 14.001s-7 9 -11 13v0zM235.003 660.999c-9.33301 0 -17.833 1.66699 -25.5 5s-14.5 8 -20.5 14c-5.33301 6 -9.66602 12.833 -12.999 20.5s-5 15.834 -5 24.501c0 9.33301 1.66699 17.833 5 25.5s7.66602 14.5 12.999 20.5
c6 5.33301 12.833 9.66602 20.5 12.999s16.167 5 25.5 5c8.66699 0 16.834 -1.66699 24.501 -5s14.5 -7.66602 20.5 -12.999c6 -6 10.667 -12.833 14 -20.5s5 -16.167 5 -25.5c0 -8.66699 -1.66699 -16.834 -5 -24.501s-8 -14.5 -14 -20.5s-12.833 -10.667 -20.5 -14
s-15.834 -5 -24.501 -5v0zM737.003 307.999l-181.999 -182l-183 182c-4.66699 5.33301 -8.83398 10.833 -12.501 16.5s-6.83398 11.5 -9.50098 17.5c-2.66699 6.66699 -4.83398 13.5 -6.50098 20.5s-2.5 14.167 -2.5 21.5c0 14.667 2.83301 28.5 8.5 41.5
s13.5 24.167 23.5 33.5c9.33301 10 20.5 17.833 33.5 23.5s26.833 8.5 41.5 8.5c7.33301 0 14.5 -0.833008 21.5 -2.5s13.833 -3.83398 20.5 -6.50098c6 -2.66699 11.833 -5.83398 17.5 -9.50098s11.167 -8.16699 16.5 -13.5l31 -31l31 31
c4.66699 5.33301 9.83398 9.83301 15.501 13.5s11.834 6.83398 18.501 9.50098c6 2.66699 12.5 4.83398 19.5 6.50098s14.167 2.5 21.5 2.5c14.667 0 28.5 -2.83301 41.5 -8.5s24.5 -13.5 34.5 -23.5c9.33301 -9.33301 16.833 -20.5 22.5 -33.5s8.5 -26.833 8.5 -41.5
c0 -7.33301 -0.666992 -14.5 -2 -21.5s-3.33301 -13.833 -6 -20.5c-2.66699 -6 -6 -11.833 -10 -17.5s-8.33301 -11.167 -13 -16.5v0z" />
    <glyph glyph-name="uniE645" unicode="&#xe645;" 
d="M853 704h-426v-256h-86v341h256v171h-341v-256h-85c-12 0 -23.167 -2.16699 -33.5 -6.5s-19.5 -10.5 -27.5 -18.5c-7.33301 -8 -13.333 -17.167 -18 -27.5s-7 -21.166 -7 -32.499v-512c0 -12 2.33301 -23.167 7 -33.5s10.667 -19.5 18 -27.5
c8 -7.33301 17.167 -13.333 27.5 -18s21.5 -7 33.5 -7h682c12 0 23.167 2.33301 33.5 7s19.5 10.667 27.5 18c7.33301 8 13.333 17.167 18 27.5s7 21.5 7 33.5v512c0 11.333 -2.33301 22.166 -7 32.499s-10.667 19.5 -18 27.5c-8 8 -17.167 14.167 -27.5 18.5
s-21.5 6.5 -33.5 6.5v0z" />
    <glyph glyph-name="uniE646" unicode="&#xe646;" 
d="M597 875h-340.999c-12 0 -23.167 -2.33301 -33.5 -7s-19.166 -10.667 -26.499 -18c-8 -8 -14.167 -17.167 -18.5 -27.5s-6.5 -21.5 -6.5 -33.5v-682c0 -12 2.16699 -23.167 6.5 -33.5s10.166 -19.5 17.499 -27.5c8 -7.33301 17.167 -13.333 27.5 -18s21.5 -7 33.5 -7h512
c12 0 23.167 2.33301 33.5 7s19.166 10.667 26.499 18c8 8 14.167 17.167 18.5 27.5s6.5 21.5 6.5 33.5v512l-256 256v0zM683.001 277h-128v-128h-86v128h-128v86h128v128h86v-128h128v-86v0zM555.001 576v235l234 -235h-234v0z" />
    <glyph glyph-name="uniE647" unicode="&#xe647;" 
d="M811 789h-598c-11.333 0 -22.166 -2.16699 -32.499 -6.5s-19.5 -10.5 -27.5 -18.5c-8 -7.33301 -14.167 -16.166 -18.5 -26.499s-6.5 -21.5 -6.5 -33.5v-512c0 -12 2.16699 -23.167 6.5 -33.5s10.5 -19.166 18.5 -26.499c8 -8 17.167 -14.167 27.5 -18.5
s21.166 -6.5 32.499 -6.5h171v85h-171v427h598v-427h-171v-85h171c11.333 0 22.166 2.16699 32.499 6.5s19.5 10.5 27.5 18.5c8 7.33301 14.167 16.166 18.5 26.499s6.5 21.5 6.5 33.5v512c0 12 -2.16699 23.167 -6.5 33.5s-10.5 19.166 -18.5 26.499
c-8 8 -17.167 14.167 -27.5 18.5s-21.166 6.5 -32.499 6.5v0zM512 533l-171 -170h128v-256h86v256h128l-171 170v0z" />
    <glyph glyph-name="uniE648" unicode="&#xe648;" 
d="M811 149l-597.999 -0.000976562v598h299v85h-299c-11.333 0 -22.166 -2.16699 -32.499 -6.5s-19.5 -10.5 -27.5 -18.5s-14.167 -17.167 -18.5 -27.5s-6.5 -21.166 -6.5 -32.499v-598c0 -11.333 2.16699 -22.166 6.5 -32.499s10.5 -19.5 18.5 -27.5
s17.167 -14.167 27.5 -18.5s21.166 -6.5 32.499 -6.5h598c11.333 0 22.166 2.16699 32.499 6.5s19.5 10.5 27.5 18.5s14.167 17.167 18.5 27.5s6.5 21.166 6.5 32.499v299h-85v-299v0zM597.001 831.999v-85h153l-419 -420l60 -60l420 419v-153h85v299h-299v0z" />
    <glyph glyph-name="uniE649" unicode="&#xe649;" 
d="M427 576h170v128h128l-213 213l-213 -213h128v-128v0zM384 533h-128v128l-213 -213l213 -213v128h128v170v0zM981 448l-213 213v-128h-128v-170h128v-128l213 213v0zM597 320h-170v-128h-128l213 -213l213 213h-128v128v0z" />
    <glyph glyph-name="uniE64A" unicode="&#xe64a;" 
d="M469 619c-17.333 0 -33.833 -3.33301 -49.5 -10s-29.167 -16 -40.5 -28c-12 -11.333 -21.333 -24.833 -28 -40.5s-10 -32.167 -10 -49.5c0 -18 3.33301 -34.667 10 -50s16 -29 28 -41c11.333 -11.333 24.833 -20.333 40.5 -27s32.167 -10 49.5 -10
c18 0 34.667 3.33301 50 10s29 15.667 41 27c11.333 12 20.333 25.667 27 41s10 32 10 50c0 17.333 -3.33301 33.833 -10 49.5s-15.667 29.167 -27 40.5c-12 12 -25.667 21.333 -41 28s-32 10 -50 10v0zM811 832h-598c-11.333 0 -22.166 -2.16699 -32.499 -6.5
s-19.5 -10.5 -27.5 -18.5s-14.167 -17.167 -18.5 -27.5s-6.5 -21.166 -6.5 -32.499v-598c0 -11.333 2.16699 -22.166 6.5 -32.499s10.5 -19.5 18.5 -27.5s17.167 -14.167 27.5 -18.5s21.166 -6.5 32.499 -6.5h598c11.333 0 22.166 2.16699 32.499 6.5s19.5 10.5 27.5 18.5
s14.167 17.167 18.5 27.5s6.5 21.166 6.5 32.499v598c0 11.333 -2.16699 22.166 -6.5 32.499s-10.5 19.5 -18.5 27.5s-17.167 14.167 -27.5 18.5s-21.166 6.5 -32.499 6.5v0zM750 149l-163 164c-8.66699 -6 -17.5 -11.167 -26.5 -15.5s-18.5 -7.83301 -28.5 -10.5
c-10 -3.33301 -20.167 -5.83301 -30.5 -7.5s-21.166 -2.5 -32.499 -2.5c-29.333 0 -57 5.66699 -83 17s-48.333 26.666 -67 45.999c-19.333 19.333 -34.666 42 -45.999 68s-17 53.667 -17 83s5.66699 57 17 83s26.666 48.333 45.999 67c18.667 19.333 41 34.666 67 45.999
s53.667 17 83 17s57 -5.66699 83 -17s48.667 -26.666 68 -45.999c19.333 -18.667 34.666 -41 45.999 -67s17 -53.667 17 -83c0 -11.333 -0.833008 -22.166 -2.5 -32.499s-4.16699 -20.5 -7.5 -30.5c-2.66699 -10 -6.16699 -19.5 -10.5 -28.5s-9.5 -17.833 -15.5 -26.5
l164 -163l-61 -61v0z" />
    <glyph glyph-name="uniE64B" unicode="&#xe64b;" 
d="M853 789h-682.001c-12 0 -23.167 -2.16699 -33.5 -6.5s-19.166 -10.5 -26.499 -18.5c-8 -7.33301 -14.167 -16.166 -18.5 -26.499s-6.5 -21.5 -6.5 -33.5l-1 -512c0 -12 2.33301 -23.167 7 -33.5s10.667 -19.166 18 -26.499c8 -8 17.167 -14.167 27.5 -18.5
s21.5 -6.5 33.5 -6.5h682c12 0 23.167 2.16699 33.5 6.5s19.5 10.5 27.5 18.5c7.33301 7.33301 13.333 16.166 18 26.499s7 21.5 7 33.5v512c0 12 -2.33301 23.167 -7 33.5s-10.667 19.166 -18 26.499c-8 8 -17.167 14.167 -27.5 18.5s-21.5 6.5 -33.5 6.5v0zM852.999 192
h-682v256h682v-256v0zM852.999 619h-682v85h682v-85v0z" />
    <glyph glyph-name="uniE64C" unicode="&#xe64c;" 
d="M853 747h-135l-78 85h-256l-78 -85h-135c-12 0 -23.167 -2.33301 -33.5 -7s-19.5 -10.667 -27.5 -18c-7.33301 -8 -13.333 -17.167 -18 -27.5s-7 -21.5 -7 -33.5v-512c0 -11.333 2.33301 -22.166 7 -32.499s10.667 -19.5 18 -27.5c8 -8 17.167 -14.167 27.5 -18.5
s21.5 -6.5 33.5 -6.5h298v89c-30 5.33301 -58 15.5 -84 30.5s-48.667 33.5 -68 55.5c-18.667 22.667 -33.5 48.167 -44.5 76.5s-16.5 58.166 -16.5 89.499h85c0 -23.333 4.5 -45.333 13.5 -66s21.167 -38.667 36.5 -54c16 -15.333 34.333 -27.5 55 -36.5
s42.667 -13.5 66 -13.5s45.333 4.5 66 13.5s39 21.167 55 36.5c15.333 15.333 27.5 33.333 36.5 54s13.5 42.667 13.5 66h85c0 -31.333 -5.5 -61.166 -16.5 -89.499s-25.833 -53.833 -44.5 -76.5c-19.333 -22 -42 -40.5 -68 -55.5s-54 -25.167 -84 -30.5v-89h298
c12 0 23.167 2.16699 33.5 6.5s19.5 10.5 27.5 18.5c7.33301 8 13.333 17.167 18 27.5s7 21.166 7 32.499v512c0 12 -2.33301 23.167 -7 33.5s-10.667 19.5 -18 27.5c-8 7.33301 -17.167 13.333 -27.5 18s-21.5 7 -33.5 7v0zM597 405
c0 -11.333 -2.16699 -22.166 -6.5 -32.499s-10.5 -19.5 -18.5 -27.5c-7.33301 -8 -16.166 -14.167 -26.499 -18.5s-21.5 -6.5 -33.5 -6.5s-23.167 2.16699 -33.5 6.5s-19.166 10.5 -26.499 18.5c-8 8 -14.167 17.167 -18.5 27.5s-6.5 21.166 -6.5 32.499v171
c0 12 2.16699 23.167 6.5 33.5s10.5 19.166 18.5 26.499c7.33301 8 16.166 14.167 26.499 18.5s21.5 6.5 33.5 6.5s23.167 -2.16699 33.5 -6.5s19.166 -10.5 26.499 -18.5c8 -7.33301 14.167 -16.166 18.5 -26.499s6.5 -21.5 6.5 -33.5v-171v0z" />
    <glyph glyph-name="uniE64D" unicode="&#xe64d;" 
d="M811 832h-43v85h-85v-85h-342v85h-85v-85h-43c-11.333 0 -22.166 -2.16699 -32.499 -6.5s-19.5 -10.5 -27.5 -18.5s-14.167 -17.167 -18.5 -27.5s-6.5 -21.166 -6.5 -32.499v-598c0 -11.333 2.16699 -22.166 6.5 -32.499s10.5 -19.5 18.5 -27.5
s17.167 -14.167 27.5 -18.5s21.166 -6.5 32.499 -6.5h598c11.333 0 22.166 2.16699 32.499 6.5s19.5 10.5 27.5 18.5s14.167 17.167 18.5 27.5s6.5 21.166 6.5 32.499v598c0 11.333 -2.16699 22.166 -6.5 32.499s-10.5 19.5 -18.5 27.5s-17.167 14.167 -27.5 18.5
s-21.166 6.5 -32.499 6.5v0zM512 704c17.333 0 33.833 -3.33301 49.5 -10s29.167 -16 40.5 -28c12 -11.333 21.333 -24.833 28 -40.5s10 -32.167 10 -49.5c0 -18 -3.33301 -34.667 -10 -50s-16 -29 -28 -41c-11.333 -11.333 -24.833 -20.333 -40.5 -27
s-32.167 -10 -49.5 -10s-33.833 3.33301 -49.5 10s-29.167 15.667 -40.5 27c-12 12 -21.333 25.667 -28 41s-10 32 -10 50c0 17.333 3.33301 33.833 10 49.5s16 29.167 28 40.5c11.333 12 24.833 21.333 40.5 28s32.167 10 49.5 10v0zM768 192h-512v43
c0 21.333 9.33301 40.166 28 56.499s41.334 30.166 68.001 41.499s54.667 19.833 84 25.5s54.666 8.5 75.999 8.5s46.666 -2.83301 75.999 -8.5s57.333 -14.167 84 -25.5s49.334 -25.166 68.001 -41.499s28 -35.166 28 -56.499v-43v0z" />
    <glyph glyph-name="uniE64E" unicode="&#xe64e;" 
d="M810 469l11.5 -0.00195312c3.66699 0 7.16699 -0.333008 10.5 -1c3.33301 0 6.83301 -0.166992 10.5 -0.5s7.16699 -0.833008 10.5 -1.5v494l-853 -853h493c0 3.33301 -0.166992 6.83301 -0.5 10.5s-0.833008 7.16699 -1.5 10.5c0 3.33301 -0.166992 6.83301 -0.5 10.5
s-0.5 7.16699 -0.5 10.5c0 44.667 8.5 86.334 25.5 125.001s39.833 72.667 68.5 102c28.667 28.667 62.5 51.334 101.5 68.001s80.5 25 124.5 25v0zM969 127.998c0 4 0.164062 7.66699 0.49707 11s0.5 6.66602 0.5 9.99902c0 4 -0.166992 7.66699 -0.5 11
s-0.5 6.66602 -0.5 9.99902l45 35c2 2 3.16699 4.33301 3.5 7s-0.166992 5 -1.5 7l-42 74c-1.33301 2 -3.33301 3.5 -6 4.5s-5 1.16699 -7 0.5l-53 -22c-3.33301 2 -6.33301 4 -9 6s-5.66699 4 -9 6c-2.66699 2 -5.66699 3.66699 -9 5l-10 4l-7 57
c-0.666992 2.66699 -2 4.83398 -4 6.50098s-4.33301 2.5 -7 2.5h-85c-2.66699 0 -5 -0.833008 -7 -2.5s-3.33301 -3.83398 -4 -6.50098l-8 -57c-3.33301 -1.33301 -6.5 -2.83301 -9.5 -4.5s-6.16699 -3.16699 -9.5 -4.5c-2.66699 -2 -5.5 -4 -8.5 -6s-5.83301 -4 -8.5 -6
l-53 22c-2.66699 0.666992 -5.16699 0.5 -7.5 -0.5s-4.16602 -2.5 -5.49902 -4.5l-43 -74c-1.33301 -2 -1.66602 -4.33301 -0.999023 -7s2 -5 4 -7l45 -35c-0.666992 -3.33301 -1.16699 -6.66602 -1.5 -9.99902s-0.5 -7 -0.5 -11c0 -3.33301 0.166992 -6.66602 0.5 -9.99902
s0.833008 -7 1.5 -11l-45 -35c-2 -1.33301 -3.33301 -3.33301 -4 -6s-0.333984 -5 0.999023 -7l43 -74c1.33301 -2.66699 3.33301 -4.33398 6 -5.00098s5 -0.666992 7 0l53 21c2.66699 -2 5.5 -4 8.5 -6s5.83301 -3.66699 8.5 -5l9.5 -5.5
c3 -1.66699 6.16699 -3.16699 9.5 -4.5l8 -56c0.666992 -2.66699 2 -4.83398 4 -6.50098s4.33301 -2.5 7 -2.5h85c2.66699 0 5 0.833008 7 2.5s3 3.83398 3 6.50098l8 56c3.33301 1.33301 6.5 2.83301 9.5 4.5l9.5 5.5c2.66699 1.33301 5.5 3 8.5 5s5.83301 4 8.5 6l53 -21
c2.66699 -0.666992 5.33398 -0.666992 8.00098 0s4.33398 2.33398 5.00098 5.00098l43 74c1.33301 2 1.83301 4.33301 1.5 7s-1.5 4.66699 -3.5 6l-45 35v0zM809.997 84.998c-8.66699 0 -16.834 1.66699 -24.501 5s-14.5 8 -20.5 14s-10.667 12.833 -14 20.5
s-5 15.834 -5 24.501c0 9.33301 1.66699 17.833 5 25.5s8 14.5 14 20.5c6 5.33301 12.833 9.66602 20.5 12.999s15.834 5 24.501 5c9.33301 0 17.833 -1.66699 25.5 -5s14.5 -7.66602 20.5 -12.999c5.33301 -6 9.66602 -12.833 12.999 -20.5s5 -16.167 5 -25.5
c0 -8.66699 -1.66699 -16.834 -5 -24.501s-7.66602 -14.5 -12.999 -20.5c-6 -6 -12.833 -10.667 -20.5 -14s-16.167 -5 -25.5 -5v0z" />
    <glyph glyph-name="uniE64F" unicode="&#xe64f;" 
d="M555 661h-86v-85h86v85v0zM555 491h-86v-256h86v256v0zM725 917h-426c-12 0 -23.167 -2.16699 -33.5 -6.5s-19.5 -10.5 -27.5 -18.5c-7.33301 -7.33301 -13.333 -16.166 -18 -26.499s-7 -21.5 -7 -33.5v-768c0 -12 2.33301 -23.167 7 -33.5s10.667 -19.166 18 -26.499
c8 -8 17.167 -14.167 27.5 -18.5s21.5 -6.5 33.5 -6.5h426c12 0 23.167 2.16699 33.5 6.5s19.5 10.5 27.5 18.5c7.33301 7.33301 13.333 16.166 18 26.499s7 21.5 7 33.5v768c0 12 -2.33301 23.167 -7 33.5s-10.667 19.166 -18 26.499c-8 8 -17.167 14.167 -27.5 18.5
s-21.5 6.5 -33.5 6.5v0zM725 149h-426v598h426v-598v0z" />
    <glyph glyph-name="uniE650" unicode="&#xe650;" 
d="M512 708c12.667 0 24.334 -2.33301 35.001 -7s20 -11 28 -19c8.66699 -8 15.334 -17.5 20.001 -28.5s7 -22.5 7 -34.5c0 -12.667 -2.33301 -24.5 -7 -35.5s-11.334 -20.5 -20.001 -28.5c-8 -8 -17.333 -14.333 -28 -19s-22.334 -7 -35.001 -7s-24.334 2.33301 -35.001 7
s-20 11 -28 19c-8.66699 8 -15.334 17.5 -20.001 28.5s-7 22.833 -7 35.5c0 12 2.33301 23.5 7 34.5s11.334 20.5 20.001 28.5c8 8 17.333 14.333 28 19s22.334 7 35.001 7v0zM512 324c32 0 63.5 -3.33301 94.5 -10s58.833 -14.667 83.5 -24s44.5 -19.166 59.5 -29.499
s22.5 -18.833 22.5 -25.5v-47h-520v47c0 6.66699 7.5 15.167 22.5 25.5s34.833 20.166 59.5 29.499s52.5 17.333 83.5 24s62.5 10 94.5 10v0zM512 789c-23.333 0 -45.5 -4.33301 -66.5 -13s-39.167 -21 -54.5 -37c-15.333 -15.333 -27.5 -33.333 -36.5 -54
s-13.5 -42.667 -13.5 -66c0 -24 4.5 -46.333 13.5 -67s21.167 -38.667 36.5 -54s33.5 -27.5 54.5 -36.5s43.167 -13.5 66.5 -13.5s45.5 4.5 66.5 13.5s39.167 21.167 54.5 36.5s27.5 33.333 36.5 54s13.5 43 13.5 67c0 23.333 -4.5 45.333 -13.5 66s-21.167 38.667 -36.5 54
c-15.333 16 -33.5 28.333 -54.5 37s-43.167 13 -66.5 13v0zM512 405c-28.667 0 -62.5 -3.5 -101.5 -10.5s-76.167 -17.5 -111.5 -31.5c-36 -14.667 -66.333 -32.667 -91 -54s-37 -46 -37 -74v-128h682v128c0 28 -12.333 52.667 -37 74s-55 39.333 -91 54
c-35.333 14 -72.5 24.5 -111.5 31.5s-72.833 10.5 -101.5 10.5v0z" />
    <glyph glyph-name="uniE651" unicode="&#xe651;" 
d="M85 704h-84.999v-213v0v-384c0 -12 2.16699 -23.167 6.5 -33.5s10.5 -19.5 18.5 -27.5c8 -7.33301 17.167 -13.333 27.5 -18s21.166 -7 32.499 -7h768v86h-768v597v0zM939.001 789l-342 0.000976562l-85 86h-256c-12 0 -23.167 -2.33301 -33.5 -7
s-19.166 -10.667 -26.499 -18c-8 -8 -14.167 -17.167 -18.5 -27.5s-6.5 -21.5 -6.5 -33.5v-512c0 -11.333 2.16699 -22.166 6.5 -32.499s10.5 -19.5 18.5 -27.5c7.33301 -8 16.166 -14.167 26.499 -18.5s21.5 -6.5 33.5 -6.5h683c11.333 0 22.166 2.16699 32.499 6.5
s19.5 10.5 27.5 18.5s14.167 17.167 18.5 27.5s6.5 21.166 6.5 32.499v427c0 12 -2.16699 23.167 -6.5 33.5s-10.5 19.166 -18.5 26.499c-8 8 -17.167 14.167 -27.5 18.5s-21.166 6.5 -32.499 6.5v0zM299.001 320.001l192 256l149 -192l107 128l149 -192h-597v0z" />
    <glyph glyph-name="uniE652" unicode="&#xe652;" 
d="M853 299c-13.333 0 -26.5 0.500977 -39.5 1.50098s-25.833 2.5 -38.5 4.5s-25.167 4.5 -37.5 7.5s-24.5 6.5 -36.5 10.5c-4 1.33301 -7.83301 2 -11.5 2s-7.5 -0.333008 -11.5 -1c-3.33301 -0.666992 -6.83301 -2 -10.5 -4s-6.83398 -4.33301 -9.50098 -7l-94 -95
c-30.667 15.333 -59.5 33 -86.5 53s-52.5 42 -76.5 66c-24 23.333 -45.833 48.666 -65.5 75.999s-37.167 56 -52.5 86l94 95c2.66699 2.66699 5 5.83398 7 9.50098s3.33301 7.16699 4 10.5c0.666992 4 1 7.83301 1 11.5s-0.666992 7.5 -2 11.5c-4 12 -7.5 24.167 -10.5 36.5
s-5.5 24.833 -7.5 37.5s-3.5 25.5 -4.5 38.5s-1.5 26.167 -1.5 39.5c0 6 -1.16699 11.667 -3.5 17s-5.5 10 -9.5 14c-4 3.33301 -8.5 6.16602 -13.5 8.49902s-10.5 3.5 -16.5 3.5h-149c-6 0 -11.667 -1.16699 -17 -3.5s-9.66602 -5.16602 -12.999 -8.49902
c-4 -4 -7.16699 -8.66699 -9.5 -14s-3.5 -11 -3.5 -17c0 -100 19 -194 57 -282s89.667 -165 155 -231c66 -65.333 143 -117 231 -155s182 -57 282 -57c6 0 11.667 1.16699 17 3.5s10 5.16602 14 8.49902c3.33301 4 6.16602 8.66699 8.49902 14s3.5 11 3.5 17v149
c0 6 -1.16699 11.5 -3.5 16.5s-5.16602 9.5 -8.49902 13.5c-4 4 -8.66699 7.16699 -14 9.5s-11 3.5 -17 3.5v0zM512 832.001v-427l128 128h256v299h-384v0z" />
    <glyph glyph-name="uniE653" unicode="&#xe653;" 
d="M512 832c-54 0 -104.669 -4.66699 -152.002 -14s-92 -22 -134 -38c-42.667 -16.667 -82.667 -36 -120 -58s-72.666 -45.667 -105.999 -71l512 -630l512 630c-33.333 25.333 -68.666 49 -105.999 71s-77.333 41 -120 57c-42 16.667 -86.667 29.667 -134 39s-98 14 -152 14
v0zM554.998 277h-86v256h86v-256v0zM468.998 619v85h86v-85h-86v0z" />
    <glyph glyph-name="uniE654" unicode="&#xe654;" 
d="M811 661h-342v-256h342v256v0zM896 832h-768c-12 0 -23.167 -2.16699 -33.5 -6.5s-19.166 -10.5 -26.499 -18.5c-8 -8 -14.167 -17.167 -18.5 -27.5s-6.5 -21.166 -6.5 -32.499v-598c0 -11.333 2.16699 -22.166 6.5 -32.499s10.5 -19.5 18.5 -27.5
c7.33301 -7.33301 16.166 -13.166 26.499 -17.499s21.5 -6.5 33.5 -6.5h768c12 0 23.167 2.16699 33.5 6.5s19.166 10.166 26.499 17.499c8 8 14.167 17.167 18.5 27.5s6.5 21.166 6.5 32.499v598c0 11.333 -2.16699 22.166 -6.5 32.499s-10.5 19.5 -18.5 27.5
c-7.33301 8 -16.166 14.167 -26.499 18.5s-21.5 6.5 -33.5 6.5v0zM896 149h-768v598h768v-598v0z" />
    <glyph glyph-name="uniE655" unicode="&#xe655;" 
d="M811 789h-171l-337 -539l-111 198l192 341h-171l-192 -341l192 -341h171l337 539l111 -198l-192 -341h171l192 341z" />
    <glyph glyph-name="uniE656" unicode="&#xe656;" 
d="M811 619h-598c-17.333 0 -33.833 -3.33301 -49.5 -10s-29.167 -16 -40.5 -28c-12 -11.333 -21.333 -24.833 -28 -40.5s-10 -32.167 -10 -49.5v-256h171v-171h512v171h171v256c0 17.333 -3.33301 33.833 -10 49.5s-16 29.167 -28 40.5c-11.333 12 -24.833 21.333 -40.5 28
s-32.167 10 -49.5 10v0zM683 149h-342v214h342v-214v0zM811 448c-6 0 -11.667 1.16699 -17 3.5s-10 5.16602 -14 8.49902c-3.33301 4 -6.16602 8.66699 -8.49902 14s-3.5 11 -3.5 17s1.16699 11.5 3.5 16.5s5.16602 9.5 8.49902 13.5c4 4 8.66699 7 14 9s11 3 17 3
s11.5 -1 16.5 -3s9.5 -5 13.5 -9s7 -8.5 9 -13.5s3 -10.5 3 -16.5s-1 -11.667 -3 -17s-5 -10 -9 -14c-4 -3.33301 -8.5 -6.16602 -13.5 -8.49902s-10.5 -3.5 -16.5 -3.5v0zM768 832h-512v-171h512v171v0z" />
    <glyph glyph-name="uniE657" unicode="&#xe657;" 
d="M512 875c-59.333 0 -114.833 -11.167 -166.5 -33.5s-96.834 -52.833 -135.501 -91.5s-69.167 -84 -91.5 -136s-33.5 -107.333 -33.5 -166s11.167 -114 33.5 -166s52.833 -97.333 91.5 -136s83.834 -69.167 135.501 -91.5s107.167 -33.5 166.5 -33.5
c58.667 0 114 11.167 166 33.5s97.333 52.833 136 91.5s69.167 84 91.5 136s33.5 107.333 33.5 166s-11.167 114 -33.5 166s-52.833 97.333 -91.5 136s-84 69.167 -136 91.5s-107.333 33.5 -166 33.5v0zM512 107c-47.333 0 -91.666 8.83301 -132.999 26.5
s-77.333 42.167 -108 73.5c-31.333 30.667 -55.833 66.667 -73.5 108s-26.5 85.666 -26.5 132.999s8.83301 91.666 26.5 132.999s42.167 77.333 73.5 108c30.667 31.333 66.667 55.833 108 73.5s85.666 26.5 132.999 26.5s91.666 -8.83301 132.999 -26.5
s77.333 -42.167 108 -73.5c31.333 -30.667 55.833 -66.667 73.5 -108s26.5 -85.666 26.5 -132.999s-8.83301 -91.666 -26.5 -132.999s-42.167 -77.333 -73.5 -108c-30.667 -31.333 -66.667 -55.833 -108 -73.5s-85.666 -26.5 -132.999 -26.5v0zM533 661h-64v-256l224 -134
l32 52l-192 114v224z" />
    <glyph glyph-name="uniE658" unicode="&#xe658;" 
d="M896 704h-84.999v-384h-555v-85c0 -6 1.16699 -11.667 3.5 -17s5.5 -9.66602 9.5 -12.999c3.33301 -4 7.66602 -7.16699 12.999 -9.5s11 -3.5 17 -3.5h469l171 -171v640c0 6 -1.16699 11.667 -3.5 17s-5.5 9.66602 -9.5 12.999c-4 4 -8.5 7.16699 -13.5 9.5
s-10.5 3.5 -16.5 3.5v0zM725.001 448v384c0 6 -1 11.5 -3 16.5s-5 9.5 -9 13.5s-8.66699 7.16699 -14 9.5s-10.666 3.5 -15.999 3.5h-555c-6 0 -11.5 -1.16699 -16.5 -3.5s-9.5 -5.5 -13.5 -9.5s-7.16699 -8.5 -9.5 -13.5s-3.5 -10.5 -3.5 -16.5v-597l171 170h427
c5.33301 0 10.666 1.16699 15.999 3.5s10 5.5 14 9.5s7 8.5 9 13.5s3 10.5 3 16.5v0z" />
    <glyph glyph-name="uniE659" unicode="&#xe659;" 
d="M768 235h-512v85h512v-85v0zM768 405h-512v86h512v-86v0zM768 576h-512v85h512v-85v0zM128 21l64 64l64 -64l64 64l64 -64l64 64l64 -64l64 64l64 -64l64 64l64 -64l64 64l64 -64v854l-64 -64l-64 64l-64 -64l-64 64l-64 -64l-64 64l-64 -64l-64 64l-64 -64l-64 64
l-64 -64l-64 64v-854v0z" />
    <glyph glyph-name="uniE65A" unicode="&#xe65a;" 
d="M853 704h-93.0029c1.33301 3.33301 2.5 6.66602 3.5 9.99902s1.83301 7 2.5 11c0.666992 3.33301 1.16699 6.83301 1.5 10.5s0.5 7.5 0.5 11.5c0 17.333 -3.33301 33.833 -10 49.5s-16 29.167 -28 40.5c-11.333 12 -24.833 21.333 -40.5 28s-32.167 10 -49.5 10
c-11.333 0 -22.166 -1.5 -32.499 -4.5s-19.833 -6.83301 -28.5 -11.5c-9.33301 -5.33301 -17.833 -11.5 -25.5 -18.5s-14.5 -14.833 -20.5 -23.5l-21 -29l-21 29c-6 8.66699 -12.833 16.5 -20.5 23.5s-16.167 13.167 -25.5 18.5c-8.66699 4.66699 -18.167 8.5 -28.5 11.5
s-21.166 4.5 -32.499 4.5c-17.333 0 -33.833 -3.33301 -49.5 -10s-29.167 -16 -40.5 -28c-12 -11.333 -21.333 -24.833 -28 -40.5s-10 -32.167 -10 -49.5c0 -4 0.166992 -7.83301 0.5 -11.5s0.833008 -7.16699 1.5 -10.5c0.666992 -4 1.5 -7.66699 2.5 -11
s2.16699 -6.66602 3.5 -9.99902h-93c-12 0 -23.167 -2.16699 -33.5 -6.5s-19.166 -10.5 -26.499 -18.5c-8 -8 -14.167 -17.167 -18.5 -27.5s-6.5 -21.166 -6.5 -32.499l-1 -470c0 -11.333 2.33301 -22.166 7 -32.499s10.667 -19.5 18 -27.5c8 -8 17.167 -14.167 27.5 -18.5
s21.5 -6.5 33.5 -6.5h682c12 0 23.167 2.16699 33.5 6.5s19.5 10.5 27.5 18.5c7.33301 8 13.333 17.167 18 27.5s7 21.166 7 32.499v470c0 11.333 -2.33301 22.166 -7 32.499s-10.667 19.5 -18 27.5c-8 8 -17.167 14.167 -27.5 18.5s-21.5 6.5 -33.5 6.5v0zM639.997 789
c6 0 11.5 -1 16.5 -3s9.5 -5 13.5 -9s7.16699 -8.66699 9.5 -14s3.5 -10.666 3.5 -15.999c0 -6 -1.16699 -11.667 -3.5 -17s-5.5 -9.66602 -9.5 -12.999c-4 -4 -8.5 -7.16699 -13.5 -9.5s-10.5 -3.5 -16.5 -3.5s-11.5 1.16699 -16.5 3.5s-9.5 5.5 -13.5 9.5
c-4 3.33301 -7.16699 7.66602 -9.5 12.999s-3.5 11 -3.5 17c0 5.33301 1.16699 10.666 3.5 15.999s5.5 10 9.5 14s8.5 7 13.5 9s10.5 3 16.5 3v0zM383.997 789c6 0 11.5 -1 16.5 -3s9.5 -5 13.5 -9s7.16699 -8.66699 9.5 -14s3.5 -10.666 3.5 -15.999
c0 -6 -1.16699 -11.667 -3.5 -17s-5.5 -9.66602 -9.5 -12.999c-4 -4 -8.5 -7.16699 -13.5 -9.5s-10.5 -3.5 -16.5 -3.5s-11.5 1.16699 -16.5 3.5s-9.5 5.5 -13.5 9.5c-4 3.33301 -7.16699 7.66602 -9.5 12.999s-3.5 11 -3.5 17c0 5.33301 1.16699 10.666 3.5 15.999
s5.5 10 9.5 14s8.5 7 13.5 9s10.5 3 16.5 3v0zM852.997 149h-682v86h682v-86v0zM852.997 363h-682v256h216l-88 -121l69 -50l144 196l43 -58l101 -138l69 50l-88 121h216v-256v0z" />
    <glyph glyph-name="uniE65B" unicode="&#xe65b;" 
d="M43 64h938l-469 811l-469 -811v0zM555 192h-86v85h86v-85v0zM555 363h-86v170h86v-170v0z" />
    <glyph glyph-name="uniE65C" unicode="&#xe65c;" 
d="M554 832c-52.667 0 -102.331 -9.99902 -148.998 -29.999s-87.334 -47.333 -122.001 -82c-34.667 -35.333 -62 -76.166 -82 -122.499s-30 -96.166 -30 -149.499h-128l166 -166l3 -6l172 172h-128c0 41.333 7.83301 80.166 23.5 116.499s36.834 67.833 63.501 94.5
c27.333 27.333 59.166 48.833 95.499 64.5s75.166 23.5 116.499 23.5s80 -7.83301 116 -23.5s67.667 -37.167 95 -64.5c26.667 -26.667 47.834 -58.167 63.501 -94.5s23.5 -75.166 23.5 -116.499s-7.83301 -80.166 -23.5 -116.499s-36.834 -67.833 -63.501 -94.5
c-27.333 -27.333 -59 -48.833 -95 -64.5s-74.667 -23.5 -116 -23.5c-20.667 0 -40.834 2.16699 -60.501 6.5s-38.5 10.166 -56.5 17.499c-17.333 7.33301 -34 16.5 -50 27.5s-30.667 23.167 -44 36.5l-61 -60c17.333 -17.333 36.333 -33 57 -47s42.334 -26 65.001 -36
c23.333 -9.33301 47.5 -16.666 72.5 -21.999s50.5 -8 76.5 -8c53.333 0 103.333 10 150 30s87.334 47.333 122.001 82c34.667 35.333 62.167 76.166 82.5 122.499s30.5 96.166 30.5 149.499s-10.167 103.166 -30.5 149.499s-47.833 87.166 -82.5 122.499
c-34.667 34.667 -75.334 62 -122.001 82s-96.667 30 -150 30v0zM512.003 619.001v-214l183 -108l30 52l-149 88v182h-64v0z" />
    <glyph glyph-name="uniE65D" unicode="&#xe65d;" 
d="M512 875c-41.333 0 -80.168 -7.83301 -116.501 -23.5s-67.833 -37.167 -94.5 -64.5c-27.333 -26.667 -48.833 -58.167 -64.5 -94.5s-23.5 -75.166 -23.5 -116.499c0 -112 49.833 -232.5 149.5 -361.5l149.5 -193.5l149.5 193.5c99.667 129 149.5 249.5 149.5 361.5
c0 41.333 -7.83301 80.166 -23.5 116.499s-37.167 67.833 -64.5 94.5c-26.667 27.333 -58.167 48.833 -94.5 64.5s-75.166 23.5 -116.499 23.5v0zM511.998 469c-14.667 0 -28.5 2.83301 -41.5 8.5s-24.167 13.5 -33.5 23.5c-10 9.33301 -17.833 20.5 -23.5 33.5
s-8.5 26.833 -8.5 41.5s2.83301 28.5 8.5 41.5s13.5 24.167 23.5 33.5c9.33301 10 20.5 17.833 33.5 23.5s26.833 8.5 41.5 8.5s28.5 -2.83301 41.5 -8.5s24.167 -13.5 33.5 -23.5c10 -9.33301 17.833 -20.5 23.5 -33.5s8.5 -26.833 8.5 -41.5s-2.83301 -28.5 -8.5 -41.5
s-13.5 -24.167 -23.5 -33.5c-9.33301 -10 -20.5 -17.833 -33.5 -23.5s-26.833 -8.5 -41.5 -8.5v0z" />
    </font>
</defs>
</svg>
